<?xml version="1.0" encoding="UTF-8" standalone="no"?>
<!-- Created with Inkscape (http://www.inkscape.org/) -->

<svg
   version="1.1"
   id="svg2"
   xml:space="preserve"
   width="592.56"
   height="525.52002"
   viewBox="0 0 592.56 525.52002"
   sodipodi:docname="3047845.eps"
   xmlns:inkscape="http://www.inkscape.org/namespaces/inkscape"
   xmlns:sodipodi="http://sodipodi.sourceforge.net/DTD/sodipodi-0.dtd"
   xmlns="http://www.w3.org/2000/svg"
   xmlns:svg="http://www.w3.org/2000/svg"><defs
     id="defs6"><clipPath
       clipPathUnits="userSpaceOnUse"
       id="clipPath156"><path
         d="m 2208.77,2122.38 c 6.71,-11.33 10.63,-24.5 10.63,-38.61 0,-41.93 -33.99,-75.92 -75.91,-75.92 -41.93,0 -75.92,33.99 -75.92,75.92 0,14.11 3.93,27.28 10.64,38.61 h -88.05 c 6.71,-11.33 10.63,-24.5 10.63,-38.61 0,-41.93 -33.98,-75.92 -75.91,-75.92 -41.92,0 -75.91,33.99 -75.91,75.92 0,14.11 3.92,27.28 10.64,38.61 h -88.06 c 6.71,-11.33 10.63,-24.5 10.63,-38.61 0,-41.93 -33.98,-75.92 -75.9,-75.92 -41.93,0 -75.92,33.99 -75.92,75.92 0,14.11 3.93,27.28 10.64,38.61 h -88.05 c 6.7,-11.33 10.63,-24.5 10.63,-38.61 0,-41.93 -33.99,-75.92 -75.91,-75.92 -41.93,0 -75.92,33.99 -75.92,75.92 0,14.11 3.93,27.28 10.64,38.61 h -88.05 c 6.71,-11.33 10.63,-24.5 10.63,-38.61 0,-41.93 -33.98,-75.92 -75.91,-75.92 -41.92,0 -75.91,33.99 -75.91,75.92 0,14.11 3.92,27.28 10.64,38.61 h -88.06 c 6.71,-11.33 10.64,-24.5 10.64,-38.61 0,-41.93 -33.99,-75.92 -75.91,-75.92 -41.93,0 -75.917,33.99 -75.917,75.92 0,14.11 3.926,27.28 10.637,38.61 H 930.027 V 552.469 H 2237.85 V 2122.38 h -29.08"
         id="path154" /></clipPath></defs><sodipodi:namedview
     id="namedview4"
     pagecolor="#ffffff"
     bordercolor="#666666"
     borderopacity="1.0"
     inkscape:pageshadow="2"
     inkscape:pageopacity="0.0"
     inkscape:pagecheckerboard="0" /><g
     id="g8"
     inkscape:groupmode="layer"
     inkscape:label="ink_ext_XXXXXX"
     transform="matrix(1.3333333,0,0,-1.3333333,0,525.52)"><g
       id="g10"
       transform="scale(0.1)"><path
         d="m 2549.16,639.809 1779.1,-24.2 -96.56,639.231 -1682.54,-615.031"
         style="fill:#f8f8f9;fill-opacity:1;fill-rule:nonzero;stroke:none"
         id="path12" /><path
         d="m 4249.01,677.789 -1699.46,-50.98 -16.92,564.051 1699.46,50.98 16.92,-564.051"
         style="fill:#eeeeee;fill-opacity:1;fill-rule:nonzero;stroke:none"
         id="path14" /><path
         d="m 4014.46,1047.33 c 0.04,-1.44 -284.64,-11.15 -635.79,-21.68 -351.26,-10.54 -635.95,-17.91 -636,-16.47 -0.04,1.44 284.59,11.14 635.85,21.67 351.14,10.54 635.9,17.91 635.94,16.48"
         style="fill:#e3e3e2;fill-opacity:1;fill-rule:nonzero;stroke:none"
         id="path16" /><path
         d="m 4027.74,901.102 c 0.04,-1.442 -284.65,-11.153 -635.79,-21.68 -351.26,-10.543 -635.96,-17.91 -636.01,-16.473 -0.04,1.442 284.59,11.133 635.85,21.672 351.14,10.539 635.9,17.91 635.95,16.481"
         style="fill:#e3e3e2;fill-opacity:1;fill-rule:nonzero;stroke:none"
         id="path18" /><path
         d="m 3027.29,1286.09 658.49,19.74 -31.09,-33.01 49.13,-33.81 -50.42,-30.39 52.44,-36.93 -690.16,-20.7 38.55,40.93 -25.61,36.28 34.57,22.84 -35.9,35.05"
         style="fill:#f8f8f9;fill-opacity:1;fill-rule:nonzero;stroke:none"
         id="path20" /><path
         d="M 79.5625,2294.44 206.633,1812.69 c 60.582,-20.79 122.48,-38.14 198.625,-18.38 l 360.394,106.84 -177.89,552.06 -508.1995,-158.77"
         style="fill:#fcfdfd;fill-opacity:1;fill-rule:nonzero;stroke:none"
         id="path22" /><path
         d="M 47.2539,2311.98 174.324,1830.23 372.945,1811.84 733.344,1918.67 585.703,2460.15 47.2539,2311.98"
         style="fill:#f8f8f9;fill-opacity:1;fill-rule:nonzero;stroke:none"
         id="path24" /><path
         d="m 224.484,1884.3 -50.16,-54.07 c 0,0 40.434,-25.25 82.735,-28.76 42.304,-3.51 79.836,-0.32 115.886,10.37 0,0 -90.289,-0.06 -148.461,72.46"
         style="fill:#e3e3e2;fill-opacity:1;fill-rule:nonzero;stroke:none"
         id="path26" /><path
         d="M 43.5938,2193.14 235.07,2376.2 196.855,2416.68 0,2235.09 43.5938,2193.14"
         style="fill:#eeeeee;fill-opacity:1;fill-rule:nonzero;stroke:none"
         id="path28" /><path
         d="m 683.598,2361.86 -239.563,113.08 -24.082,-50.19 240.113,-118.63 23.532,55.74"
         style="fill:#eeeeee;fill-opacity:1;fill-rule:nonzero;stroke:none"
         id="path30" /><path
         d="m 572.762,2272.63 c 0.379,-1.38 -90.946,-27.77 -203.957,-58.93 -113.051,-31.17 -204.977,-55.3 -205.36,-53.92 -0.382,1.39 90.922,27.77 203.973,58.94 113.016,31.16 204.957,55.3 205.344,53.91"
         style="fill:#e3e3e2;fill-opacity:1;fill-rule:nonzero;stroke:none"
         id="path32" /><path
         d="m 591.305,2198.32 c 0.383,-1.39 -90.942,-27.78 -203.953,-58.94 -113.051,-31.16 -204.977,-55.3 -205.364,-53.91 -0.379,1.38 90.93,27.76 203.977,58.93 113.012,31.16 204.961,55.3 205.34,53.92"
         style="fill:#e3e3e2;fill-opacity:1;fill-rule:nonzero;stroke:none"
         id="path34" /><path
         d="m 611.637,2133.51 c 0.386,-1.39 -90.942,-27.78 -203.953,-58.93 -113.047,-31.17 -204.977,-55.31 -205.36,-53.92 -0.379,1.38 90.926,27.77 203.977,58.94 113.012,31.15 204.957,55.3 205.336,53.91"
         style="fill:#e3e3e2;fill-opacity:1;fill-rule:nonzero;stroke:none"
         id="path36" /><path
         d="m 628.574,2070.38 c 0.383,-1.38 -90.941,-27.77 -203.953,-58.93 -113.051,-31.17 -204.976,-55.3 -205.355,-53.92 -0.387,1.39 90.922,27.77 203.972,58.94 113.016,31.16 204.957,55.3 205.336,53.91"
         style="fill:#e3e3e2;fill-opacity:1;fill-rule:nonzero;stroke:none"
         id="path38" /><path
         d="m 4151.95,557.43 c -29.4,-1.93 -56.54,-18.758 -75.28,-41.5 -18.74,-22.731 -29.79,-50.95 -36.54,-79.641 -13.05,-55.5 -2.01,-120.18 15.36,-174.48 58.95,23.113 93.75,87.793 109.36,121.711 24.64,53.609 36.66,165.48 -12.9,173.91"
         style="fill:#eeeeee;fill-opacity:1;fill-rule:nonzero;stroke:none"
         id="path40" /><path
         d="m 3971.77,192.469 c 17.98,27.57 17.27,65.133 1.51,94.031 -15.76,28.891 -44.96,49.199 -76.71,57.898 -14.67,4.024 -31.61,5.383 -44,-3.457 -11.58,-8.25 -16.22,-23.91 -14.27,-38.011 1.96,-14.09 9.52,-26.801 18.32,-37.989 30.17,-38.359 66.41,-69.929 115.15,-72.472"
         style="fill:#eeeeee;fill-opacity:1;fill-rule:nonzero;stroke:none"
         id="path42" /><path
         d="m 3970.81,8.30859 c 0.3,-0.03906 1.07,4.08201 2.33,11.52341 1.33,8.2071 3.07,18.8164 5.16,31.5586 3.9,26.5313 10.23,64.2694 3.31,105.5704 -6.69,41.129 -24.2,75.91 -42.07,96.469 -8.81,10.402 -17.16,17.711 -23.3,22.16 -2.99,2.351 -5.59,3.781 -7.25,4.879 -1.7,1.051 -2.63,1.531 -2.71,1.422 -0.62,-0.75 14.23,-9.301 31,-30.309 16.97,-20.652 33.67,-54.871 40.26,-95.301 6.79,-40.449 1.05,-77.8396 -2.13,-104.4724 -1.72,-13.3867 -3.11,-24.2383 -3.87,-31.7578 -0.77,-7.5313 -1,-11.71096 -0.73,-11.74221"
         style="fill:#e3e3e2;fill-opacity:1;fill-rule:nonzero;stroke:none"
         id="path44" /><path
         d="m 4135.29,473.051 c -0.13,0.058 -0.91,-1.52 -2.26,-4.59 -1.49,-3.481 -3.39,-7.93 -5.74,-13.449 -4.92,-11.723 -11.81,-28.75 -20.14,-49.871 -16.69,-42.25 -38.92,-100.93 -62,-166.27 -23.08,-65.371 -42.63,-125 -56.16,-168.3515 -6.78,-21.6797 -12.12,-39.2578 -15.65,-51.4609 -1.63,-5.7773 -2.96,-10.43751 -3.98,-14.07813 -0.87,-3.23047 -1.26,-4.9414075 -1.13,-4.9882825 0.14,-0.0429688 0.8,1.5898425 1.92,4.7460925 1.22,3.57031 2.79,8.16012 4.72,13.84372 4.16,12.5469 9.89,29.8594 16.89,51.0391 14.25,43.1089 34.22,102.5509 57.28,167.8789 23.07,65.301 44.85,124.09 60.83,166.582 7.85,20.887 14.26,37.969 18.91,50.34 2.06,5.629 3.72,10.187 5.02,13.738 1.1,3.149 1.62,4.84 1.49,4.891"
         style="fill:#e3e3e2;fill-opacity:1;fill-rule:nonzero;stroke:none"
         id="path46" /><path
         d="m 4037.84,132.18 c 33.33,60.879 97.71,103.64 166.74,110.769 17.58,1.821 38.86,-0.5 47.2,-16.07 8.35,-15.617 -1.6,-34.688 -13.2,-48.059 -48.29,-55.609 -132.19,-77.039 -201.24,-51.41"
         style="fill:#eeeeee;fill-opacity:1;fill-rule:nonzero;stroke:none"
         id="path48" /><path
         d="m 4179.19,194.969 c -0.03,0.293 -3.94,0.011 -11.02,-0.739 -3.54,-0.351 -7.88,-0.8 -12.83,-1.878 -4.93,-1.082 -10.69,-1.793 -16.78,-3.704 -6.15,-1.699 -12.92,-3.418 -19.92,-6.187 -7.13,-2.34 -14.44,-5.652 -22.11,-9.191 -15.15,-7.438 -31.17,-17.071 -46.31,-29.391 -15.04,-12.481 -27.64,-26.289 -37.82,-39.77 -4.88,-6.8981 -9.54,-13.4293 -13.13,-20.0387 -3.99,-6.3789 -6.9,-12.75 -9.66,-18.5 -2.96,-5.6601 -4.63,-11.2187 -6.53,-15.8984 -1.93,-4.6914 -3.09,-8.8906 -4.01,-12.3321 -1.9,-6.8593 -2.82,-10.6679 -2.54,-10.75 0.88,-0.2812 4.66,15.0704 15.72,37.7188 2.88,5.6016 5.9,11.8008 9.97,18 3.65,6.4336 8.35,12.793 13.23,19.5234 10.18,13.117 22.62,26.598 37.38,38.859 14.89,12.11 30.55,21.661 45.37,29.168 7.5,3.563 14.64,6.942 21.64,9.391 6.83,2.859 13.48,4.719 19.5,6.59 24.25,6.93 39.97,8.23 39.85,9.129"
         style="fill:#e3e3e2;fill-opacity:1;fill-rule:nonzero;stroke:none"
         id="path50" /><path
         d="m 4423.28,6.26953 c 0,-1.42969 -953.28,-2.60937 -2128.93,-2.60937 -1176.07,0 -2129.147,1.17968 -2129.147,2.60937 0,1.44141 953.077,2.60156 2129.147,2.60156 1175.65,0 2128.93,-1.16015 2128.93,-2.60156"
         style="fill:#1d2a30;fill-opacity:1;fill-rule:nonzero;stroke:none"
         id="path52" /><path
         d="m 2230.98,3610.38 4.31,-80.52 c 11.5,11.02 26.77,18.16 43.86,19.07 38.13,2.04 70.7,-27.5 72.76,-65.98 2.06,-38.48 -27.18,-71.33 -65.3,-73.37 -17.09,-0.92 -33.03,4.55 -45.65,14.29 l 4.33,-80.74 c 11.49,11.03 26.76,18.17 43.85,19.08 38.13,2.04 70.7,-27.5 72.76,-65.98 2.06,-38.48 -27.18,-71.33 -65.3,-73.37 -17.09,-0.91 -33.03,4.55 -45.65,14.28 l 4.33,-80.73 c 11.49,11.04 26.76,18.17 43.85,19.08 38.13,2.04 70.7,-27.5 72.76,-65.98 2.06,-38.48 -27.18,-71.33 -65.3,-73.37 -17.09,-0.91 -33.03,4.55 -45.65,14.29 l 4.33,-80.73 c 11.49,11.03 26.76,18.16 43.85,19.07 38.13,2.04 70.7,-27.5 72.76,-65.98 2.06,-38.48 -27.18,-71.33 -65.3,-73.37 -17.09,-0.91 -33.03,4.55 -45.65,14.29 l 4.33,-80.73 c 11.49,11.02 26.76,18.16 43.85,19.07 38.13,2.04 70.71,-27.5 72.76,-65.98 2.06,-38.48 -27.18,-71.33 -65.3,-73.37 -17.09,-0.91 -33.03,4.55 -45.65,14.29 l 4.33,-80.73 c 11.49,11.02 26.76,18.16 43.85,19.07 38.13,2.05 70.71,-27.5 72.76,-65.98 2.06,-38.48 -27.18,-71.33 -65.3,-73.37 -17.09,-0.91 -33.03,4.55 -45.64,14.29 l 2.68,-50.09 2150.64,51.59 -108.97,1252.69 -2104.29,-134.08"
         style="fill:#eeeeee;fill-opacity:1;fill-rule:nonzero;stroke:none"
         id="path54" /><path
         d="m 2183.42,3661.96 4.31,-80.52 c 11.5,11.03 26.77,18.16 43.86,19.08 38.12,2.03 70.7,-27.5 72.76,-65.98 2.06,-38.49 -27.18,-71.33 -65.31,-73.38 -17.08,-0.91 -33.03,4.55 -45.63,14.29 l 4.31,-80.73 c 11.5,11.03 26.77,18.16 43.86,19.08 38.12,2.04 70.7,-27.5 72.76,-65.98 2.06,-38.49 -27.18,-71.33 -65.3,-73.37 -17.09,-0.91 -33.04,4.55 -45.64,14.28 l 4.31,-80.73 c 11.5,11.03 26.77,18.16 43.86,19.08 38.12,2.04 70.7,-27.5 72.76,-65.98 2.06,-38.48 -27.18,-71.33 -65.3,-73.37 -17.09,-0.92 -33.04,4.55 -45.64,14.29 l 4.32,-80.74 c 11.5,11.03 26.76,18.17 43.85,19.08 38.12,2.04 70.7,-27.5 72.76,-65.98 2.06,-38.48 -27.18,-71.33 -65.3,-73.37 -17.09,-0.91 -33.03,4.55 -45.64,14.29 l 4.32,-80.74 c 11.5,11.03 26.76,18.16 43.85,19.08 38.13,2.04 70.7,-27.5 72.76,-65.98 2.06,-38.48 -27.18,-71.33 -65.3,-73.37 -17.09,-0.91 -33.03,4.55 -45.64,14.29 l 4.32,-80.74 c 11.5,11.03 26.76,18.16 43.85,19.08 38.13,2.04 70.7,-27.5 72.76,-65.98 2.06,-38.48 -27.18,-71.33 -65.3,-73.37 -17.09,-0.92 -33.03,4.55 -45.64,14.29 l 2.68,-50.09 2150.1,115.04 -62.61,1170.2 -2150.11,-115.05"
         style="fill:#f8f8f9;fill-opacity:1;fill-rule:nonzero;stroke:none"
         id="path56" /><path
         d="m 4345.92,3545.45 c 0.08,-1.43 -481.22,-28.36 -1074.86,-60.12 -593.85,-31.77 -1075.17,-56.36 -1075.25,-54.92 -0.07,1.43 481.12,28.35 1074.96,60.12 593.66,31.77 1075.07,56.36 1075.15,54.92"
         style="fill:#e3e3e2;fill-opacity:1;fill-rule:nonzero;stroke:none"
         id="path58" /><path
         d="m 4355.94,3358.23 c 0.07,-1.44 -481.22,-28.35 -1074.86,-60.12 -593.86,-31.77 -1075.17,-56.36 -1075.25,-54.92 -0.08,1.43 481.12,28.35 1074.96,60.12 593.66,31.77 1075.07,56.36 1075.15,54.92"
         style="fill:#e3e3e2;fill-opacity:1;fill-rule:nonzero;stroke:none"
         id="path60" /><path
         d="m 4365.95,3171.01 c 0.08,-1.43 -481.21,-28.35 -1074.85,-60.12 -593.86,-31.77 -1075.18,-56.35 -1075.25,-54.92 -0.08,1.44 481.11,28.35 1074.96,60.13 593.64,31.76 1075.06,56.35 1075.14,54.91"
         style="fill:#e3e3e2;fill-opacity:1;fill-rule:nonzero;stroke:none"
         id="path62" /><path
         d="m 4375.97,2983.8 c 0.08,-1.44 -481.21,-28.36 -1074.86,-60.12 -593.85,-31.78 -1075.17,-56.36 -1075.24,-54.93 -0.08,1.44 481.11,28.35 1074.96,60.13 593.64,31.76 1075.06,56.35 1075.14,54.92"
         style="fill:#e3e3e2;fill-opacity:1;fill-rule:nonzero;stroke:none"
         id="path64" /><path
         d="m 4385.99,2796.58 c 0.08,-1.44 -481.22,-28.35 -1074.87,-60.12 -593.84,-31.77 -1075.16,-56.36 -1075.23,-54.92 -0.08,1.43 481.1,28.35 1074.96,60.12 593.64,31.77 1075.06,56.36 1075.14,54.92"
         style="fill:#e3e3e2;fill-opacity:1;fill-rule:nonzero;stroke:none"
         id="path66" /><path
         d="m 2542.47,2507.62 -62.61,1170.2 5,0.27 62.61,-1170.2 -5,-0.27"
         style="fill:#f03658;fill-opacity:1;fill-rule:nonzero;stroke:none"
         id="path68" /><path
         d="m 2739.76,2518.18 c -1.44,-0.08 -16.61,261.84 -33.9,584.93 -17.29,323.21 -30.15,585.19 -28.71,585.27 1.44,0.08 16.61,-261.79 33.91,-584.99 17.28,-323.09 30.14,-585.13 28.7,-585.21"
         style="fill:#e3e3e2;fill-opacity:1;fill-rule:nonzero;stroke:none"
         id="path70" /><path
         d="m 2356.99,2497.7 c -1.43,-0.08 -16.62,261.84 -33.9,584.93 -17.29,323.21 -30.14,585.19 -28.71,585.27 1.44,0.08 16.62,-261.78 33.91,-584.99 17.29,-323.09 30.14,-585.13 28.7,-585.21"
         style="fill:#e3e3e2;fill-opacity:1;fill-rule:nonzero;stroke:none"
         id="path72" /><path
         d="m 2949.4,2529.4 c -1.45,-0.08 -16.62,261.84 -33.91,584.93 -17.29,323.21 -30.15,585.19 -28.71,585.27 1.43,0.08 16.61,-261.78 33.91,-584.99 17.28,-323.09 30.14,-585.14 28.71,-585.21"
         style="fill:#e3e3e2;fill-opacity:1;fill-rule:nonzero;stroke:none"
         id="path74" /><path
         d="m 3159.03,2540.61 c -1.44,-0.07 -16.63,261.84 -33.91,584.93 -17.3,323.21 -30.15,585.19 -28.71,585.27 1.43,0.08 16.61,-261.78 33.9,-584.99 17.29,-323.09 30.15,-585.13 28.72,-585.21"
         style="fill:#e3e3e2;fill-opacity:1;fill-rule:nonzero;stroke:none"
         id="path76" /><path
         d="m 3368.65,2551.83 c -1.43,-0.07 -16.62,261.84 -33.9,584.93 -17.3,323.21 -30.15,585.19 -28.71,585.27 1.43,0.08 16.61,-261.78 33.9,-584.99 17.29,-323.09 30.15,-585.13 28.71,-585.21"
         style="fill:#e3e3e2;fill-opacity:1;fill-rule:nonzero;stroke:none"
         id="path78" /><path
         d="m 3578.28,2563.05 c -1.43,-0.08 -16.62,261.84 -33.9,584.93 -17.3,323.2 -30.15,585.19 -28.71,585.27 1.43,0.07 16.61,-261.79 33.9,-584.99 17.3,-323.1 30.15,-585.14 28.71,-585.21"
         style="fill:#e3e3e2;fill-opacity:1;fill-rule:nonzero;stroke:none"
         id="path80" /><path
         d="m 3787.91,2574.27 c -1.43,-0.08 -16.62,261.84 -33.9,584.93 -17.3,323.2 -30.15,585.19 -28.72,585.26 1.44,0.08 16.62,-261.78 33.91,-584.98 17.3,-323.1 30.15,-585.14 28.71,-585.21"
         style="fill:#e3e3e2;fill-opacity:1;fill-rule:nonzero;stroke:none"
         id="path82" /><path
         d="m 3997.54,2585.48 c -1.43,-0.08 -16.62,261.84 -33.91,584.93 -17.29,323.21 -30.14,585.19 -28.71,585.27 1.44,0.07 16.62,-261.79 33.91,-584.99 17.29,-323.09 30.15,-585.13 28.71,-585.21"
         style="fill:#e3e3e2;fill-opacity:1;fill-rule:nonzero;stroke:none"
         id="path84" /><path
         d="m 4207.17,2596.7 c -1.44,-0.08 -16.62,261.84 -33.91,584.93 -17.29,323.2 -30.14,585.19 -28.71,585.27 1.44,0.08 16.61,-261.79 33.91,-584.99 17.29,-323.09 30.15,-585.14 28.71,-585.21"
         style="fill:#e3e3e2;fill-opacity:1;fill-rule:nonzero;stroke:none"
         id="path86" /><path
         d="m 4181.04,3305.34 c 0,-0.09 -1.31,-0.25 -3.89,-0.47 -2.82,-0.22 -6.61,-0.51 -11.43,-0.87 -10.34,-0.66 -25.09,-1.61 -43.96,-2.8 -38.48,-2.21 -93.66,-5.38 -161.74,-9.29 -136.59,-7.56 -325.3,-17.56 -533.76,-27.86 -208.53,-10.3 -397.34,-18.91 -534.04,-24.1 -68.36,-2.59 -123.69,-4.33 -161.94,-5 -38.19,-0.69 -59.6,-0.23 -59.28,1.42 -0.15,-0.41 5.16,-0.68 15.21,-0.54 10.06,0.1 24.91,0.5 44.02,1.15 38.21,1.29 93.51,3.58 161.83,6.65 136.88,6.57 325.53,15.62 533.95,25.62 208.33,10.28 396.95,19.59 533.83,26.34 68.1,3.21 123.32,5.82 161.82,7.62 18.88,0.79 33.65,1.41 44.02,1.84 4.82,0.14 8.61,0.26 11.44,0.35 2.59,0.05 3.91,0.03 3.92,-0.06"
         style="fill:#1d2a30;fill-opacity:1;fill-rule:nonzero;stroke:none"
         id="path88" /><path
         d="m 4224.57,3091.52 c 0.06,-1.44 -346.93,-18.52 -774.94,-38.15 -428.16,-19.64 -775.19,-34.38 -775.25,-32.95 -0.07,1.44 346.85,18.52 775.01,38.15 428,19.63 775.11,34.38 775.18,32.95"
         style="fill:#1d2a30;fill-opacity:1;fill-rule:nonzero;stroke:none"
         id="path90" /><path
         d="m 4247.54,2904.3 c 0.07,-1.44 -346.93,-18.52 -774.94,-38.15 -428.15,-19.63 -775.19,-34.38 -775.25,-32.94 -0.07,1.43 346.85,18.51 775.02,38.14 428,19.63 775.11,34.38 775.17,32.95"
         style="fill:#1d2a30;fill-opacity:1;fill-rule:nonzero;stroke:none"
         id="path92" /><path
         d="m 2424.1,3539.21 c 9.46,-46.47 29.68,-93.62 68.71,-120.55 44.37,-30.59 109.25,-27.07 150.05,8.13 40.81,35.19 53.8,98.85 30.04,147.23 -23.75,48.37 -82.06,77.02 -134.86,66.25"
         style="fill:#e3e3e2;fill-opacity:1;fill-rule:nonzero;stroke:none"
         id="path94" /><path
         d="m 2418.93,3539.59 c 2.88,-53.95 48.95,-95.34 102.91,-92.46 53.95,2.89 95.35,48.97 92.46,102.92 -2.88,53.95 -48.97,95.34 -102.91,92.46 -53.96,-2.89 -95.35,-48.97 -92.46,-102.92"
         style="fill:#365462;fill-opacity:1;fill-rule:nonzero;stroke:none"
         id="path96" /><path
         d="m 2362.73,3575.77 c 1.72,-32.38 29.37,-57.22 61.75,-55.49 32.38,1.74 57.22,29.38 55.48,61.76 -1.73,32.37 -29.37,57.21 -61.76,55.48 -32.37,-1.73 -57.21,-29.38 -55.47,-61.75"
         style="fill:#365462;fill-opacity:1;fill-rule:nonzero;stroke:none"
         id="path98" /><path
         d="m 2417.4,3521.46 c 0.1,1.02 8.9,-1.27 22.09,2.48 12.82,3.47 30.4,14.64 37.34,34.23 6.79,19.58 0.9,39.4 -6.33,50.6 -7.26,11.66 -15.14,16.07 -14.53,16.86 0.15,0.26 2.23,-0.54 5.57,-2.77 3.36,-2.21 7.77,-6.17 12.03,-12.05 8.46,-11.37 15.66,-32.65 8.17,-54.39 -3.8,-10.66 -10.79,-19.26 -18.39,-25.2 -7.69,-5.88 -15.85,-9.39 -22.96,-10.85 -7.11,-1.5 -13.05,-1.41 -17.02,-0.71 -3.96,0.66 -6.03,1.51 -5.97,1.8"
         style="fill:#1d2a30;fill-opacity:1;fill-rule:nonzero;stroke:none"
         id="path100" /><path
         d="m 2466.58,3614.84 c 0.48,1.46 15.61,-6.07 34.36,-1.71 18.79,4.26 29.11,17.63 30.18,16.52 0.52,-0.36 -1.23,-4.22 -6,-9.02 -4.71,-4.77 -12.78,-10.22 -23.02,-12.57 -10.22,-2.35 -19.87,-0.97 -26.18,1.27 -6.4,2.24 -9.65,4.94 -9.34,5.51"
         style="fill:#1d2a30;fill-opacity:1;fill-rule:nonzero;stroke:none"
         id="path102" /><path
         d="m 2481.69,3466.18 c -0.8,-0.08 -1.55,4.73 -4.26,11.84 -2.64,7.1 -7.68,16.5 -16.01,24.37 -8.33,7.88 -18.01,12.37 -25.24,14.61 -7.26,2.3 -12.11,2.77 -12.08,3.58 -0.01,0.62 5,1.48 12.98,-0.01 7.9,-1.43 18.77,-5.75 27.92,-14.39 9.13,-8.63 14.07,-19.24 15.95,-27.05 1.94,-7.89 1.37,-12.93 0.74,-12.95"
         style="fill:#1d2a30;fill-opacity:1;fill-rule:nonzero;stroke:none"
         id="path104" /><path
         d="m 4076.85,3608.25 c 9.45,-46.48 29.67,-93.63 68.71,-120.55 44.36,-30.59 109.24,-27.08 150.05,8.12 40.8,35.2 53.8,98.86 30.04,147.23 -23.75,48.38 -82.06,77.03 -134.88,66.26"
         style="fill:#e3e3e2;fill-opacity:1;fill-rule:nonzero;stroke:none"
         id="path106" /><path
         d="m 4265.79,3634.76 c 2.8,-52.13 -37.21,-96.66 -89.35,-99.46 -52.14,-2.78 -96.66,37.22 -99.46,89.36 -2.78,52.13 37.22,96.67 89.36,99.45 52.14,2.79 96.66,-37.21 99.45,-89.35"
         style="fill:#f03658;fill-opacity:1;fill-rule:nonzero;stroke:none"
         id="path108" /><path
         d="m 4316.07,3675.32 c 1.67,-31.29 -22.34,-58.01 -53.63,-59.69 -31.29,-1.67 -58,22.33 -59.67,53.62 -1.68,31.29 22.33,58.01 53.61,59.68 31.29,1.67 58.01,-22.33 59.69,-53.61"
         style="fill:#f03658;fill-opacity:1;fill-rule:nonzero;stroke:none"
         id="path110" /><path
         d="m 4269.12,3617.5 c 0.1,-0.29 -1.79,-1.34 -5.54,-2.38 -3.73,-1.09 -9.45,-1.8 -16.44,-1.1 -7,0.66 -15.2,3.19 -23.21,8.05 -7.93,4.92 -15.56,12.48 -20.31,22.35 -9.45,20.14 -4.71,41.35 2.27,53.17 7.06,12.32 15.31,16.46 15.44,16.02 0.67,-0.72 -6.43,-5.79 -12.18,-17.73 -5.76,-11.5 -9.35,-31.13 -0.84,-49.2 8.67,-18.08 26.69,-27 39.34,-29.02 13.05,-2.26 21.27,0.82 21.47,-0.16"
         style="fill:#1d2a30;fill-opacity:1;fill-rule:nonzero;stroke:none"
         id="path112" /><path
         d="m 4212.24,3702.14 c 0.38,-0.52 -2.46,-3.48 -8.38,-6.3 -5.83,-2.82 -14.98,-5.16 -25.06,-3.96 -10.09,1.2 -18.43,5.63 -23.44,9.75 -5.07,4.13 -7.15,7.67 -6.66,8.1 0.96,1.2 12.27,-10.54 30.72,-12.68 18.42,-2.26 32.18,6.49 32.82,5.09"
         style="fill:#1d2a30;fill-opacity:1;fill-rule:nonzero;stroke:none"
         id="path114" /><path
         d="m 4213.06,3557.75 c -0.63,-0.05 -1.73,4.74 -0.69,12.53 0.98,7.7 4.63,18.43 12.53,27.68 7.9,9.26 17.92,14.54 25.39,16.71 7.52,2.25 12.43,1.91 12.49,1.29 0.11,-0.8 -4.49,-1.78 -11.22,-4.74 -6.69,-2.91 -15.51,-8.24 -22.7,-16.64 -7.18,-8.41 -11.06,-17.95 -12.88,-25.02 -1.88,-7.11 -2.12,-11.8 -2.92,-11.81"
         style="fill:#1d2a30;fill-opacity:1;fill-rule:nonzero;stroke:none"
         id="path116" /><path
         d="M 737.465,3811.88 520.559,2725.48 c 100.679,-100.73 207.367,-195.86 378.757,-230.8 l 824.244,-138.75 184.11,1276.52 -1170.205,179.43"
         style="fill:#e3e3e2;fill-opacity:1;fill-rule:nonzero;stroke:none"
         id="path118" /><path
         d="M 690.063,3878.47 473.156,2792.07 851.914,2561.27 1676.16,2422.52 1910.34,3648.31 690.063,3878.47"
         style="fill:#f03658;fill-opacity:1;fill-rule:nonzero;stroke:none"
         id="path120" /><path
         d="m 626.18,2851.06 -153.024,-58.99 c 0,0 56.09,-89.94 137.157,-138.27 81.07,-48.34 159.152,-78.66 241.601,-92.53 0,0 -180.394,88.1 -225.734,289.79"
         style="fill:#f03658;fill-opacity:1;fill-rule:nonzero;stroke:none"
         id="path122" /><path
         d="m 851.914,2561.27 c -82.449,13.87 -160.531,44.19 -241.601,92.53 -81.067,48.33 -137.157,138.27 -137.157,138.27 6.375,-6.73 14.434,-9.63 23.762,-9.63 33.422,0.01 83.074,37.2 129.262,68.62 45.34,-201.69 225.734,-289.79 225.734,-289.79"
         style="fill:#bc283b;fill-opacity:1;fill-rule:nonzero;stroke:none"
         id="path124" /><path
         d="m 566.633,3644.68 561.337,178.57 -36.78,118.19 -570.631,-170.36 46.074,-126.4"
         style="fill:#e3e3e2;fill-opacity:1;fill-rule:nonzero;stroke:none"
         id="path126" /><path
         d="m 2009.84,3356.34 -368.01,459.95 -97.14,-76.72 363.68,-471.57 101.47,88.34"
         style="fill:#e3e3e2;fill-opacity:1;fill-rule:nonzero;stroke:none"
         id="path128" /><path
         d="m 1701.27,3286.42 c -0.27,-1.41 -208.2,36.52 -464.38,84.71 -256.257,48.2 -463.718,88.41 -463.452,89.82 0.265,1.42 208.156,-36.5 464.412,-84.71 256.18,-48.19 463.69,-88.4 463.42,-89.82"
         style="fill:#1d2a30;fill-opacity:1;fill-rule:nonzero;stroke:none"
         id="path130" /><path
         d="m 1665.7,3119.86 c -0.27,-1.41 -208.2,36.51 -464.38,84.7 -256.265,48.21 -463.718,88.42 -463.457,89.83 0.27,1.41 208.157,-36.51 464.417,-84.71 256.18,-48.19 463.68,-88.41 463.42,-89.82"
         style="fill:#1d2a30;fill-opacity:1;fill-rule:nonzero;stroke:none"
         id="path132" /><path
         d="m 1642.99,2970.54 c -0.27,-1.41 -208.2,36.52 -464.37,84.71 -256.268,48.2 -463.729,88.41 -463.464,89.83 0.266,1.41 208.157,-36.51 464.424,-84.72 256.17,-48.18 463.67,-88.4 463.41,-89.82"
         style="fill:#1d2a30;fill-opacity:1;fill-rule:nonzero;stroke:none"
         id="path134" /><path
         d="m 1615.14,2827.91 c -0.27,-1.41 -208.2,36.51 -464.38,84.7 -256.26,48.2 -463.717,88.42 -463.451,89.83 0.265,1.41 208.152,-36.51 464.421,-84.71 256.17,-48.19 463.67,-88.41 463.41,-89.82"
         style="fill:#1d2a30;fill-opacity:1;fill-rule:nonzero;stroke:none"
         id="path136" /><path
         d="M 2488.77,1667.28 4246.62,1443.12 4223,2086.55 Z"
         style="fill:#e3e3e2;fill-opacity:1;fill-rule:nonzero;stroke:none"
         id="path138" /><path
         d="m 4175.19,1513.56 -1687.49,140.8 46.74,560.09 1687.49,-140.81 -46.74,-560.08"
         style="fill:#365462;fill-opacity:1;fill-rule:nonzero;stroke:none"
         id="path140" /><path
         d="m 3984.67,1905.65 c -0.12,-1.44 -282.93,20.99 -631.6,50.08 -348.79,29.11 -631.36,53.86 -631.23,55.29 0.11,1.43 282.87,-20.99 631.66,-50.09 348.67,-29.1 631.3,-53.85 631.17,-55.28"
         style="fill:#1d2a30;fill-opacity:1;fill-rule:nonzero;stroke:none"
         id="path142" /><path
         d="m 3981.35,1759.45 c -0.12,-1.44 -282.93,20.99 -631.6,50.08 -348.79,29.11 -631.36,53.85 -631.23,55.29 0.11,1.43 282.87,-20.99 631.66,-50.09 348.67,-29.1 631.3,-53.85 631.17,-55.28"
         style="fill:#1d2a30;fill-opacity:1;fill-rule:nonzero;stroke:none"
         id="path144" /><path
         d="m 3034.65,2253.01 653.86,-54.56 -34.48,-29.17 44.81,-38.99 -53.31,-24.4 47.73,-42.44 -685.3,57.18 42.75,36.16 -21.26,38.78 36.78,18.72 -31.58,38.72"
         style="fill:#eeeeee;fill-opacity:1;fill-rule:nonzero;stroke:none"
         id="path146" /><path
         d="m 2228.74,2079.48 c 6.71,-11.32 10.63,-24.49 10.63,-38.6 0,-41.93 -33.99,-75.92 -75.91,-75.92 -41.93,0 -75.91,33.99 -75.91,75.92 0,14.11 3.92,27.28 10.63,38.6 h -88.05 c 6.71,-11.32 10.63,-24.49 10.63,-38.6 0,-41.93 -33.98,-75.92 -75.9,-75.92 -41.93,0 -75.92,33.99 -75.92,75.92 0,14.11 3.92,27.28 10.64,38.6 h -88.05 c 6.7,-11.32 10.63,-24.49 10.63,-38.6 0,-41.93 -33.99,-75.92 -75.91,-75.92 -41.93,0 -75.92,33.99 -75.92,75.92 0,14.11 3.93,27.28 10.64,38.6 h -88.05 c 6.71,-11.32 10.63,-24.49 10.63,-38.6 0,-41.93 -33.99,-75.92 -75.91,-75.92 -41.92,0 -75.91,33.99 -75.91,75.92 0,14.11 3.92,27.28 10.63,38.6 h -88.05 c 6.71,-11.32 10.63,-24.49 10.63,-38.6 0,-41.93 -33.98,-75.92 -75.91,-75.92 -41.92,0 -75.91,33.99 -75.91,75.92 0,14.11 3.92,27.28 10.64,38.6 h -88.06 c 6.71,-11.32 10.64,-24.49 10.64,-38.6 0,-41.93 -33.99,-75.92 -75.91,-75.92 -41.93,0 -75.918,33.99 -75.918,75.92 0,14.11 3.926,27.28 10.638,38.6 H 949.996 V 509.582 l 1373.324,-75.273 -65.5,1645.171 h -29.08"
         style="fill:#e3e3e2;fill-opacity:1;fill-rule:nonzero;stroke:none"
         id="path148" /><g
         id="g150"><g
           id="g152"
           clip-path="url(#clipPath156)"><path
             d="m 2208.77,2122.38 c 6.71,-11.33 10.63,-24.5 10.63,-38.61 0,-41.93 -33.99,-75.92 -75.91,-75.92 -41.93,0 -75.92,33.99 -75.92,75.92 0,14.11 3.93,27.28 10.64,38.61 h -88.05 c 6.71,-11.33 10.63,-24.5 10.63,-38.61 0,-41.93 -33.98,-75.92 -75.91,-75.92 -41.92,0 -75.91,33.99 -75.91,75.92 0,14.11 3.92,27.28 10.64,38.61 h -88.06 c 6.71,-11.33 10.63,-24.5 10.63,-38.61 0,-41.93 -33.98,-75.92 -75.9,-75.92 -41.93,0 -75.92,33.99 -75.92,75.92 0,14.11 3.93,27.28 10.64,38.61 h -88.05 c 6.7,-11.33 10.63,-24.5 10.63,-38.61 0,-41.93 -33.99,-75.92 -75.91,-75.92 -41.93,0 -75.92,33.99 -75.92,75.92 0,14.11 3.93,27.28 10.64,38.61 h -88.05 c 6.71,-11.33 10.63,-24.5 10.63,-38.61 0,-41.93 -33.98,-75.92 -75.91,-75.92 -41.92,0 -75.91,33.99 -75.91,75.92 0,14.11 3.92,27.28 10.64,38.61 h -88.06 c 6.71,-11.33 10.64,-24.5 10.64,-38.61 0,-41.93 -33.99,-75.92 -75.91,-75.92 -41.93,0 -75.917,33.99 -75.917,75.92 0,14.11 3.926,27.28 10.637,38.61 H 930.027 V 552.469 H 2237.85 V 2122.38 h -29.08"
             style="fill:#f8f8f9;fill-opacity:1;fill-rule:nonzero;stroke:none"
             id="path158" /><path
             d="m 1060.19,482.332 c -1.44,-0.023 -6.49,380.438 -11.29,849.668 -4.8,469.38 -7.52,849.78 -6.09,849.79 1.45,0.01 6.5,-380.36 11.3,-849.75 4.8,-469.22 7.52,-849.688 6.08,-849.708"
             style="fill:#e3e3e2;fill-opacity:1;fill-rule:nonzero;stroke:none"
             id="path160" /><path
             d="m 1164.45,482.332 c -1.44,-0.023 -6.5,380.438 -11.29,849.658 -4.8,469.39 -7.53,849.78 -6.09,849.8 1.44,0.01 6.49,-380.36 11.29,-849.75 4.8,-469.22 7.53,-849.688 6.09,-849.708"
             style="fill:#e3e3e2;fill-opacity:1;fill-rule:nonzero;stroke:none"
             id="path162" /><path
             d="m 1376.59,482.332 c -1.44,-0.023 -6.49,380.438 -11.29,849.658 -4.8,469.39 -7.52,849.78 -6.08,849.8 1.43,0.01 6.49,-380.36 11.29,-849.75 4.79,-469.22 7.52,-849.688 6.08,-849.708"
             style="fill:#e3e3e2;fill-opacity:1;fill-rule:nonzero;stroke:none"
             id="path164" /><path
             d="m 1588.74,482.332 c -1.44,-0.023 -6.5,380.438 -11.3,849.658 -4.8,469.39 -7.52,849.78 -6.08,849.8 1.44,0.01 6.49,-380.36 11.29,-849.75 4.8,-469.22 7.52,-849.688 6.09,-849.708"
             style="fill:#e3e3e2;fill-opacity:1;fill-rule:nonzero;stroke:none"
             id="path166" /><path
             d="m 1800.88,482.332 c -1.43,-0.023 -6.49,380.438 -11.29,849.658 -4.8,469.39 -7.52,849.78 -6.08,849.8 1.43,0.01 6.49,-380.36 11.29,-849.75 4.8,-469.22 7.52,-849.688 6.08,-849.708"
             style="fill:#e3e3e2;fill-opacity:1;fill-rule:nonzero;stroke:none"
             id="path168" /><path
             d="m 2002.17,482.332 c -1.44,-0.023 -6.49,380.438 -11.29,849.658 -4.8,469.39 -7.52,849.78 -6.08,849.8 1.43,0.01 6.49,-380.36 11.29,-849.75 4.8,-469.22 7.52,-849.688 6.08,-849.708"
             style="fill:#e3e3e2;fill-opacity:1;fill-rule:nonzero;stroke:none"
             id="path170" /><path
             d="m 2203.48,482.332 c -1.44,-0.023 -6.5,380.438 -11.29,849.658 -4.8,469.39 -7.53,849.78 -6.09,849.8 1.44,0.01 6.49,-380.36 11.29,-849.75 4.8,-469.22 7.53,-849.688 6.09,-849.708"
             style="fill:#e3e3e2;fill-opacity:1;fill-rule:nonzero;stroke:none"
             id="path172" /><path
             d="m 1270.11,484.469 c -1.44,-0.008 -6.49,380.441 -11.29,849.661 -4.8,469.4 -7.52,849.79 -6.08,849.81 1.43,0.01 6.49,-380.36 11.29,-849.75 4.8,-469.229 7.52,-849.71 6.08,-849.721"
             style="fill:#e3e3e2;fill-opacity:1;fill-rule:nonzero;stroke:none"
             id="path174" /><path
             d="m 1480.03,486.621 c -1.44,-0.019 -6.49,380.438 -11.29,849.659 -4.8,469.39 -7.53,849.79 -6.09,849.8 1.44,0.02 6.49,-380.36 11.29,-849.74 4.8,-469.231 7.53,-849.711 6.09,-849.719"
             style="fill:#e3e3e2;fill-opacity:1;fill-rule:nonzero;stroke:none"
             id="path176" /><path
             d="m 1689.95,488.762 c -1.44,-0.012 -6.5,380.449 -11.3,849.668 -4.8,469.38 -7.52,849.79 -6.08,849.8 1.44,0.01 6.49,-380.36 11.29,-849.75 4.8,-469.218 7.52,-849.699 6.09,-849.718"
             style="fill:#e3e3e2;fill-opacity:1;fill-rule:nonzero;stroke:none"
             id="path178" /><path
             d="m 1899.87,490.91 c -1.44,-0.008 -6.5,380.442 -11.3,849.67 -4.8,469.38 -7.52,849.78 -6.08,849.79 1.44,0.02 6.49,-380.36 11.29,-849.74 4.8,-469.22 7.52,-849.7 6.09,-849.72"
             style="fill:#e3e3e2;fill-opacity:1;fill-rule:nonzero;stroke:none"
             id="path180" /><path
             d="m 2101.1,480.18 c -1.44,-0.008 -6.5,380.449 -11.3,849.67 -4.8,469.38 -7.52,849.78 -6.08,849.8 1.44,0.01 6.49,-380.37 11.29,-849.76 4.8,-469.21 7.52,-849.691 6.09,-849.71"
             style="fill:#e3e3e2;fill-opacity:1;fill-rule:nonzero;stroke:none"
             id="path182" /><path
             d="m 2544.92,694.371 c 0.02,-1.441 -380.44,-6.41 -849.66,-11.101 -469.39,-4.688 -849.787,-7.321 -849.803,-5.879 -0.016,1.429 380.363,6.398 849.753,11.089 469.22,4.692 849.7,7.321 849.71,5.891"
             style="fill:#e3e3e2;fill-opacity:1;fill-rule:nonzero;stroke:none"
             id="path184" /><path
             d="m 2553.73,587.02 c 0.01,-1.43 -380.44,-6.399 -849.67,-11.09 -469.39,-4.688 -849.783,-7.321 -849.794,-5.891 -0.016,1.441 380.364,6.41 849.744,11.102 469.22,4.679 849.7,7.32 849.72,5.879"
             style="fill:#e3e3e2;fill-opacity:1;fill-rule:nonzero;stroke:none"
             id="path186" /><path
             d="m 2542.82,904.289 c 0.02,-1.449 -380.44,-6.41 -849.66,-11.098 -469.39,-4.691 -849.785,-7.332 -849.801,-5.882 -0.011,1.433 380.361,6.39 849.751,11.093 469.22,4.688 849.7,7.328 849.71,5.887"
             style="fill:#e3e3e2;fill-opacity:1;fill-rule:nonzero;stroke:none"
             id="path188" /><path
             d="m 2540.73,1114.2 c 0.01,-1.43 -380.44,-6.4 -849.67,-11.09 -469.38,-4.69 -849.783,-7.33 -849.798,-5.89 -0.016,1.43 380.358,6.41 849.748,11.09 469.23,4.7 849.7,7.33 849.72,5.89"
             style="fill:#e3e3e2;fill-opacity:1;fill-rule:nonzero;stroke:none"
             id="path190" /><path
             d="m 2538.63,1324.12 c 0.01,-1.43 -380.44,-6.4 -849.66,-11.09 -469.39,-4.69 -849.794,-7.32 -849.81,-5.89 -0.008,1.44 380.37,6.41 849.75,11.09 469.23,4.69 849.71,7.33 849.72,5.89"
             style="fill:#e3e3e2;fill-opacity:1;fill-rule:nonzero;stroke:none"
             id="path192" /><path
             d="m 2536.54,1534.05 c 0,-1.45 -380.45,-6.41 -849.67,-11.1 -469.39,-4.7 -849.788,-7.33 -849.804,-5.89 -0.011,1.44 380.364,6.4 849.744,11.1 469.23,4.68 849.71,7.32 849.73,5.89"
             style="fill:#e3e3e2;fill-opacity:1;fill-rule:nonzero;stroke:none"
             id="path194" /><path
             d="m 2534.44,1743.96 c 0.01,-1.44 -380.44,-6.41 -849.67,-11.1 -469.39,-4.68 -849.79,-7.32 -849.801,-5.89 -0.016,1.45 380.361,6.41 849.751,11.1 469.22,4.7 849.71,7.32 849.72,5.89"
             style="fill:#e3e3e2;fill-opacity:1;fill-rule:nonzero;stroke:none"
             id="path196" /><path
             d="m 2532.34,1953.88 c 0.02,-1.44 -380.44,-6.41 -849.67,-11.09 -469.39,-4.7 -849.783,-7.33 -849.799,-5.89 -0.012,1.43 380.359,6.4 849.749,11.09 469.22,4.69 849.71,7.32 849.72,5.89"
             style="fill:#e3e3e2;fill-opacity:1;fill-rule:nonzero;stroke:none"
             id="path198" /><path
             d="m 2532.34,2037.96 c 0.02,-1.44 -380.44,-6.41 -849.67,-11.1 -469.39,-4.69 -849.783,-7.33 -849.799,-5.89 -0.012,1.44 380.359,6.41 849.749,11.1 469.22,4.69 849.71,7.32 849.72,5.89"
             style="fill:#e3e3e2;fill-opacity:1;fill-rule:nonzero;stroke:none"
             id="path200" /><path
             d="m 2532.34,1846.62 c 0.02,-1.44 -380.44,-6.4 -849.67,-11.09 -469.39,-4.7 -849.783,-7.33 -849.799,-5.89 -0.012,1.44 380.359,6.4 849.749,11.09 469.22,4.69 849.71,7.33 849.72,5.89"
             style="fill:#e3e3e2;fill-opacity:1;fill-rule:nonzero;stroke:none"
             id="path202" /><path
             d="m 2532.34,1638.38 c 0.02,-1.44 -380.44,-6.41 -849.67,-11.09 -469.39,-4.7 -849.783,-7.34 -849.799,-5.89 -0.012,1.43 380.359,6.4 849.749,11.09 469.22,4.69 849.71,7.33 849.72,5.89"
             style="fill:#e3e3e2;fill-opacity:1;fill-rule:nonzero;stroke:none"
             id="path204" /><path
             d="m 2532.34,1430.14 c 0.02,-1.45 -380.44,-6.41 -849.67,-11.1 -469.39,-4.69 -849.783,-7.33 -849.799,-5.88 -0.012,1.43 380.359,6.39 849.749,11.09 469.22,4.69 849.71,7.32 849.72,5.89"
             style="fill:#e3e3e2;fill-opacity:1;fill-rule:nonzero;stroke:none"
             id="path206" /><path
             d="m 2532.34,1221.9 c 0.02,-1.45 -380.44,-6.41 -849.67,-11.11 -469.39,-4.68 -849.783,-7.32 -849.799,-5.88 -0.012,1.44 380.359,6.4 849.749,11.1 469.22,4.69 849.71,7.32 849.72,5.89"
             style="fill:#e3e3e2;fill-opacity:1;fill-rule:nonzero;stroke:none"
             id="path208" /><path
             d="m 2532.34,1013.65 c 0.02,-1.44 -380.44,-6.4 -849.67,-11.1 -469.39,-4.691 -849.783,-7.32 -849.799,-5.878 -0.012,1.437 380.359,6.398 849.749,11.098 469.22,4.68 849.71,7.32 849.72,5.88"
             style="fill:#e3e3e2;fill-opacity:1;fill-rule:nonzero;stroke:none"
             id="path210" /><path
             d="m 2532.34,805.41 c 0.02,-1.441 -380.44,-6.398 -849.67,-11.101 -469.39,-4.688 -849.783,-7.321 -849.799,-5.887 -0.012,1.449 380.359,6.41 849.749,11.098 469.22,4.691 849.71,7.332 849.72,5.89"
             style="fill:#e3e3e2;fill-opacity:1;fill-rule:nonzero;stroke:none"
             id="path212" /></g></g><path
         d="m 1494.14,1894.97 c 9.45,-46.47 29.67,-93.62 68.71,-120.54 44.36,-30.59 109.24,-27.08 150.04,8.12 40.81,35.2 53.8,98.86 30.05,147.23 -23.76,48.38 -82.07,77.02 -134.88,66.26"
         style="fill:#e3e3e2;fill-opacity:1;fill-rule:nonzero;stroke:none"
         id="path214" /><path
         d="m 1491.72,1895.35 c 2.88,-53.95 48.96,-95.35 102.91,-92.46 53.96,2.89 95.35,48.97 92.46,102.92 -2.88,53.95 -48.96,95.35 -102.91,92.46 -53.95,-2.89 -95.35,-48.96 -92.46,-102.92"
         style="fill:#f03658;fill-opacity:1;fill-rule:nonzero;stroke:none"
         id="path216" /><path
         d="m 1435.51,1931.53 c 1.74,-32.38 29.39,-57.22 61.76,-55.48 32.38,1.73 57.22,29.37 55.49,61.75 -1.73,32.38 -29.38,57.22 -61.76,55.48 -32.38,-1.72 -57.21,-29.38 -55.49,-61.75"
         style="fill:#f03658;fill-opacity:1;fill-rule:nonzero;stroke:none"
         id="path218" /><path
         d="m 1490.2,1877.23 c 0.09,1.01 8.89,-1.28 22.08,2.47 12.82,3.47 30.41,14.64 37.35,34.23 6.78,19.58 0.89,39.4 -6.34,50.6 -7.25,11.66 -15.13,16.07 -14.53,16.86 0.15,0.27 2.23,-0.54 5.58,-2.77 3.35,-2.21 7.76,-6.17 12.02,-12.05 8.47,-11.37 15.66,-32.65 8.17,-54.38 -3.8,-10.66 -10.79,-19.27 -18.39,-25.21 -7.69,-5.87 -15.84,-9.39 -22.95,-10.84 -7.12,-1.51 -13.07,-1.41 -17.03,-0.72 -3.97,0.66 -6.03,1.52 -5.96,1.81"
         style="fill:#1d2a30;fill-opacity:1;fill-rule:nonzero;stroke:none"
         id="path220" /><path
         d="m 1539.37,1970.6 c 0.48,1.46 15.61,-6.07 34.36,-1.7 18.79,4.25 29.11,17.62 30.18,16.52 0.53,-0.37 -1.22,-4.23 -6,-9.03 -4.71,-4.77 -12.79,-10.22 -23.02,-12.57 -10.22,-2.35 -19.87,-0.97 -26.18,1.28 -6.39,2.23 -9.65,4.94 -9.34,5.5"
         style="fill:#1d2a30;fill-opacity:1;fill-rule:nonzero;stroke:none"
         id="path222" /><path
         d="m 1554.48,1821.94 c -0.8,-0.08 -1.55,4.73 -4.25,11.85 -2.65,7.09 -7.69,16.5 -16.02,24.37 -8.33,7.87 -18.01,12.37 -25.24,14.61 -7.26,2.29 -12.1,2.76 -12.07,3.57 -0.01,0.63 4.99,1.48 12.97,0 7.91,-1.44 18.78,-5.76 27.92,-14.39 9.14,-8.65 14.08,-19.25 15.95,-27.06 1.94,-7.89 1.36,-12.92 0.74,-12.95"
         style="fill:#1d2a30;fill-opacity:1;fill-rule:nonzero;stroke:none"
         id="path224" /><path
         d="m 2091.28,1561.53 c 0,-1.45 -208.69,-2.61 -466.06,-2.61 -257.46,0 -466.11,1.16 -466.11,2.61 0,1.43 208.65,2.59 466.11,2.59 257.37,0 466.06,-1.16 466.06,-2.59"
         style="fill:#1d2a30;fill-opacity:1;fill-rule:nonzero;stroke:none"
         id="path226" /><path
         d="m 2091.28,1464.63 c 0,-1.43 -208.69,-2.61 -466.06,-2.61 -257.46,0 -466.11,1.18 -466.11,2.61 0,1.44 208.65,2.61 466.11,2.61 257.37,0 466.06,-1.17 466.06,-2.61"
         style="fill:#1d2a30;fill-opacity:1;fill-rule:nonzero;stroke:none"
         id="path228" /><path
         d="m 2091.28,1367.74 c 0,-1.44 -208.69,-2.6 -466.06,-2.6 -257.46,0 -466.11,1.16 -466.11,2.6 0,1.43 208.65,2.6 466.11,2.6 257.37,0 466.06,-1.17 466.06,-2.6"
         style="fill:#1d2a30;fill-opacity:1;fill-rule:nonzero;stroke:none"
         id="path230" /><path
         d="m 2091.28,1270.84 c 0,-1.43 -208.69,-2.6 -466.06,-2.6 -257.46,0 -466.11,1.17 -466.11,2.6 0,1.45 208.65,2.61 466.11,2.61 257.37,0 466.06,-1.16 466.06,-2.61"
         style="fill:#1d2a30;fill-opacity:1;fill-rule:nonzero;stroke:none"
         id="path232" /><path
         d="m 2091.28,1173.96 c 0,-1.45 -208.69,-2.61 -466.06,-2.61 -257.46,0 -466.11,1.16 -466.11,2.61 0,1.43 208.65,2.6 466.11,2.6 257.37,0 466.06,-1.17 466.06,-2.6"
         style="fill:#1d2a30;fill-opacity:1;fill-rule:nonzero;stroke:none"
         id="path234" /><path
         d="m 2091.28,1077.06 c 0,-1.43 -208.69,-2.6 -466.06,-2.6 -257.46,0 -466.11,1.17 -466.11,2.6 0,1.44 208.65,2.6 466.11,2.6 257.37,0 466.06,-1.16 466.06,-2.6"
         style="fill:#1d2a30;fill-opacity:1;fill-rule:nonzero;stroke:none"
         id="path236" /><path
         d="m 2091.28,980.172 c 0,-1.442 -208.69,-2.613 -466.06,-2.613 -257.46,0 -466.11,1.171 -466.11,2.613 0,1.43 208.65,2.609 466.11,2.609 257.37,0 466.06,-1.179 466.06,-2.609"
         style="fill:#1d2a30;fill-opacity:1;fill-rule:nonzero;stroke:none"
         id="path238" /><path
         d="m 3256.64,13.5508 c 241.43,79.9297 75.87,399.2582 75.87,399.2582 L 2277.38,313.57 c -84.71,0.559 -153.69,-67.941 -153.69,-152.66 0,-84.3084 68.35,-152.66 152.66,-152.66 l 980.29,5.3008"
         style="fill:#1d2a30;fill-opacity:1;fill-rule:nonzero;stroke:none"
         id="path240" /><path
         d="m 3503.65,13.8711 c 235.25,79.3906 73.14,399.0199 73.14,399.0199 L 2548.17,315.91 C 2447.71,314.602 2398.63,266.141 2398.63,163.609 2398.82,79.3203 2429.97,8.25 2547.81,10.6602 l 955.84,3.2109"
         style="fill:#1d2a30;fill-opacity:1;fill-rule:nonzero;stroke:none"
         id="path242" /><path
         d="m 3264.87,358.922 c 0,0.098 -1,0.129 -2.93,0.117 -2.23,-0.059 -5.05,-0.129 -8.57,-0.219 -7.91,-0.32 -18.92,-0.769 -32.92,-1.351 -28.97,-1.43 -70.22,-3.469 -121.02,-5.989 -102.5,-5.628 -243.46,-13.351 -399.16,-21.89 -19.49,-0.93 -38.77,-2.61 -57.71,-2.891 -19.05,-0.301 -37.8,-1.078 -56.21,-2.199 -18.4,-1.121 -36.47,-2.488 -54.14,-4.391 -17.51,-2.039 -35.3,-3.929 -51.44,-10.558 -16.13,-6.281 -30.89,-15.481 -42.79,-27.399 -11.93,-11.922 -20.45,-26.621 -25.94,-41.632 -5.56,-15.051 -8.6,-30.321 -10.56,-45 -1.92,-14.7 -2.93,-28.93 -2.84,-42.54 0.11,-27.21 4.87,-51.941 13.59,-71.6402 8.63,-19.7695 20.66,-34.1796 31.99,-43.5781 11.37,-9.4804 21.89,-14.1797 29.12,-16.4531 7.28,-2.2891 7.4,-1.5391 0.33,1.0703 -7.04,2.5703 -17.21,7.5195 -28.16,17.0703 -10.9,9.4492 -22.43,23.7813 -30.6,43.1719 -8.26,19.3589 -12.66,43.5979 -12.54,70.3589 0.02,13.391 1.14,27.442 3.13,41.918 2.04,14.461 5.13,29.391 10.61,43.911 5.41,14.523 13.62,28.461 25.05,39.793 11.44,11.32 25.67,20.128 41.27,26.136 15.59,6.344 32.7,8.082 50.29,10.082 17.57,1.84 35.57,3.16 53.92,4.25 18.34,1.059 37.03,1.821 55.99,2.09 19.08,0.27 38.28,1.942 57.79,2.871 155.71,9.18 296.68,17.481 399.18,23.52 50.77,3.25 92,5.898 120.96,7.769 13.97,1.012 24.97,1.809 32.87,2.391 3.51,0.309 6.32,0.551 8.53,0.758 1.93,0.191 2.91,0.351 2.91,0.453"
         style="fill:#365462;fill-opacity:1;fill-rule:nonzero;stroke:none"
         id="path244" /><path
         d="m 3497.16,258.199 c 0.13,-0.301 -2.73,-2.008 -8.36,-4.148 -5.61,-2.18 -14.18,-4.371 -25,-5.09 -21.24,-1.68 -53.46,4.937 -77.33,29.16 -23.63,24.488 -29.43,56.859 -27.22,78.051 1,10.808 3.41,19.308 5.72,24.867 2.29,5.563 4.07,8.391 4.36,8.25 1.11,-0.379 -5.19,-12.41 -6.09,-33.359 -1.13,-20.461 5.13,-50.93 27.27,-73.871 22.36,-22.7 52.67,-29.719 73.14,-29.11 20.97,0.371 33.16,6.36 33.51,5.25"
         style="fill:#365462;fill-opacity:1;fill-rule:nonzero;stroke:none"
         id="path246" /><path
         d="m 3187.36,1279.42 c -130.88,-14.67 -152.09,-103.54 -213.15,-191.12 l -88.23,-162.87 162.26,-99.508 -5.62,-250.02 -66.36,-221.172 611.26,34.559 -68.05,210.211 81.37,321.082 c 6.17,43.738 23.01,125.088 11.63,168.128 -35.59,134.51 -175.46,173.83 -271.61,198.82 -19.83,5.16 -115.58,4.84 -132.18,0.77 l -21.32,-8.88"
         style="fill:#f03658;fill-opacity:1;fill-rule:nonzero;stroke:none"
         id="path248" /><path
         d="m 3118.34,595.359 c -0.26,0.411 9.43,2.473 22.41,-4.757 6.26,-3.622 13.09,-9.661 17.44,-18.532 4.45,-8.808 5.42,-20.289 2.19,-31.109 -3.26,-10.82 -10.4,-19.879 -18.96,-24.789 -8.51,-5.012 -17.53,-6.274 -24.76,-5.852 -14.82,1.102 -21.78,8.149 -21.34,8.352 0.41,0.91 7.83,-4.621 21.45,-4.68 6.66,0.067 14.77,1.637 22.15,6.289 7.4,4.508 13.54,12.539 16.47,22.168 2.86,9.653 2.15,19.742 -1.54,27.582 -3.61,7.938 -9.5,13.711 -15.03,17.43 -11.41,7.461 -20.64,6.93 -20.48,7.898"
         style="fill:#fcfdfd;fill-opacity:1;fill-rule:nonzero;stroke:none"
         id="path250" /><path
         d="m 3263.86,865.359 c -0.34,-1.007 62.42,-22.699 140.16,-48.429 77.76,-25.758 141.05,-45.789 141.39,-44.778 0.33,1.02 -62.41,22.7 -140.17,48.45 -77.75,25.73 -141.05,45.777 -141.38,44.757"
         style="fill:#1d2a30;fill-opacity:1;fill-rule:nonzero;stroke:none"
         id="path252" /><path
         d="m 3218,401.41 c -18.44,0 -36.9,1.262 -55.19,3.449 l 232.46,131.321 61.82,214.871 58.39,-19.949 c -10.84,-45.571 -27.43,-113.301 -45.1,-156.704 -12.99,-31.949 -27.32,-63.906 -49.32,-90.449 -29.98,-36.16 -72.94,-60.25 -118.35,-72.23 -27.61,-7.278 -56.13,-10.309 -84.71,-10.309"
         style="fill:#bc283b;fill-opacity:1;fill-rule:nonzero;stroke:none"
         id="path254" /><path
         d="m 3042.78,582.77 c 0.39,-0.008 0.94,6.3 1.63,17.742 0.61,12.418 1.4,28.75 2.37,48.457 1.75,40.922 3.78,97.461 5.66,159.902 1.9,62.469 3.29,119.027 4.03,159.988 0.22,19.743 0.42,36.071 0.56,48.521 0.01,11.45 -0.17,17.8 -0.56,17.82 -0.38,0.02 -0.95,-6.3 -1.63,-17.74 -0.61,-12.41 -1.41,-28.73 -2.37,-48.429 -1.76,-40.922 -3.78,-97.472 -5.67,-159.972 -1.9,-62.469 -3.29,-119.039 -4.01,-159.989 -0.24,-19.73 -0.43,-36.07 -0.58,-48.5 -0.01,-11.461 0.17,-17.8 0.57,-17.8"
         style="fill:#1d2a30;fill-opacity:1;fill-rule:nonzero;stroke:none"
         id="path256" /><path
         d="m 2909.76,968.781 c -0.79,-1.351 29.89,-20.84 68.51,-43.539 38.66,-22.711 70.61,-40.023 71.4,-38.683 0.79,1.351 -29.88,20.839 -68.53,43.55 -38.63,22.7 -70.59,40.02 -71.38,38.672"
         style="fill:#1d2a30;fill-opacity:1;fill-rule:nonzero;stroke:none"
         id="path258" /><path
         d="m 3215.22,1070.42 c 0.47,-0.1 -4.69,-8.54 -18.87,-13 -6.94,-2.05 -16.03,-2.86 -25.45,0.08 -9.45,2.82 -18.46,10.02 -24.1,19.81 -5.61,9.81 -7.28,21.22 -4.95,30.81 2.21,9.62 7.5,17.05 12.77,22.01 11,10 20.9,10.19 20.74,9.74 0.37,-0.92 -8.74,-2.49 -18.14,-12.36 -4.54,-4.88 -8.97,-11.83 -10.68,-20.4 -1.8,-8.47 -0.2,-18.46 4.78,-27.21 5.04,-8.71 12.85,-15.12 21.08,-17.84 8.26,-2.84 16.5,-2.54 23,-1.08 13.25,3.15 19.21,10.23 19.82,9.44"
         style="fill:#fcfdfd;fill-opacity:1;fill-rule:nonzero;stroke:none"
         id="path260" /><path
         d="m 3086.53,897.949 c -0.26,-0.398 -6.31,7.43 -5.41,22.27 0.55,7.211 3.03,15.98 9.14,23.75 6.01,7.82 15.94,13.672 27.1,15.453 11.17,1.738 22.42,-0.774 30.54,-6.363 8.21,-5.5 13.26,-13.09 16.02,-19.778 5.42,-13.84 2.07,-23.16 1.7,-22.851 -1,-0.032 0.79,9.05 -5.07,21.359 -2.94,5.981 -7.86,12.602 -15.26,17.25 -7.27,4.703 -17.17,6.77 -27.12,5.242 -9.94,-1.609 -18.72,-6.621 -24.19,-13.34 -5.6,-6.699 -8.25,-14.511 -9.2,-21.101 -1.79,-13.508 2.7,-21.61 1.75,-21.891"
         style="fill:#fcfdfd;fill-opacity:1;fill-rule:nonzero;stroke:none"
         id="path262" /><path
         d="m 3086.53,677.25 c -0.26,-0.41 -6.31,7.43 -5.41,22.262 0.55,7.218 3.03,15.988 9.14,23.738 6.01,7.832 15.94,13.68 27.1,15.461 11.17,1.738 22.42,-0.77 30.54,-6.359 8.21,-5.5 13.26,-13.082 16.02,-19.782 5.42,-13.84 2.07,-23.148 1.7,-22.851 -1,-0.02 0.79,9.051 -5.07,21.363 -2.94,5.969 -7.86,12.59 -15.26,17.238 -7.27,4.719 -17.17,6.782 -27.12,5.25 -9.94,-1.601 -18.72,-6.609 -24.19,-13.34 -5.6,-6.691 -8.25,-14.511 -9.2,-21.109 -1.79,-13.5 2.7,-21.59 1.75,-21.871"
         style="fill:#fcfdfd;fill-opacity:1;fill-rule:nonzero;stroke:none"
         id="path264" /><path
         d="m 3279.57,952.441 c 0.19,-0.441 -9.7,-1.019 -21.44,8.079 -5.66,4.531 -11.5,11.511 -14.47,20.941 -3.07,9.371 -2.31,20.869 2.5,31.089 4.86,10.21 13.28,18.09 22.47,21.65 9.17,3.67 18.29,3.59 25.37,2.08 14.49,-3.32 20.3,-11.34 19.83,-11.46 -0.54,-0.84 -7.03,5.75 -20.5,7.84 -6.59,0.94 -14.83,0.6 -22.84,-2.88 -7.99,-3.36 -15.27,-10.37 -19.62,-19.46 -4.27,-9.11 -5.08,-19.179 -2.61,-27.5 2.38,-8.39 7.34,-14.988 12.25,-19.5 10.15,-9.078 19.36,-9.929 19.06,-10.879"
         style="fill:#fcfdfd;fill-opacity:1;fill-rule:nonzero;stroke:none"
         id="path266" /><path
         d="m 3201.29,864.281 c 0.08,0.469 8.7,-4.39 13.64,-18.41 2.3,-6.859 3.43,-15.91 0.82,-25.43 -2.5,-9.55 -9.37,-18.8 -18.95,-24.781 -9.61,-5.949 -20.96,-8.012 -30.62,-6.019 -9.69,1.879 -17.3,6.898 -22.44,11.98 -10.38,10.649 -10.93,20.531 -10.46,20.391 0.9,0.41 2.8,-8.641 12.97,-17.692 5.04,-4.371 12.15,-8.558 20.76,-9.961 8.55,-1.507 18.47,0.442 27.03,5.723 8.54,5.348 14.67,13.379 17.1,21.699 2.55,8.348 1.96,16.571 0.27,23.028 -3.61,13.132 -10.89,18.832 -10.12,19.472"
         style="fill:#fcfdfd;fill-opacity:1;fill-rule:nonzero;stroke:none"
         id="path268" /><path
         d="m 3042.45,1163.89 c -0.26,0.4 9.43,2.47 22.42,-4.77 6.25,-3.63 13.08,-9.66 17.43,-18.52 4.45,-8.81 5.42,-20.29 2.19,-31.13 -3.26,-10.82 -10.4,-19.87 -18.96,-24.77 -8.51,-5.01 -17.53,-6.29 -24.76,-5.87 -14.82,1.1 -21.77,8.16 -21.33,8.36 0.41,0.91 7.82,-4.63 21.44,-4.68 6.66,0.06 14.77,1.63 22.15,6.28 7.4,4.52 13.54,12.55 16.47,22.18 2.87,9.66 2.15,19.74 -1.54,27.58 -3.61,7.95 -9.5,13.72 -15.04,17.44 -11.39,7.46 -20.63,6.91 -20.47,7.9"
         style="fill:#fcfdfd;fill-opacity:1;fill-rule:nonzero;stroke:none"
         id="path270" /><path
         d="m 3318.06,898.711 c -0.29,-0.379 -5.52,8.039 -3.11,22.711 1.29,7.117 4.65,15.578 11.52,22.68 6.78,7.168 17.26,11.98 28.54,12.609 11.28,0.59 22.23,-3.063 29.74,-9.449 7.6,-6.313 11.85,-14.371 13.9,-21.313 3.99,-14.32 -0.3,-23.238 -0.63,-22.898 -1,0.078 1.71,8.918 -2.86,21.758 -2.33,6.25 -6.54,13.339 -13.42,18.711 -6.76,5.441 -16.4,8.492 -26.45,7.992 -10.04,-0.59 -19.29,-4.672 -25.42,-10.801 -6.25,-6.09 -9.68,-13.59 -11.31,-20.051 -3.16,-13.262 0.48,-21.762 -0.5,-21.949"
         style="fill:#fcfdfd;fill-opacity:1;fill-rule:nonzero;stroke:none"
         id="path272" /><path
         d="m 3219.07,736.68 c -0.25,0.41 9.44,2.468 22.42,-4.758 6.27,-3.641 13.09,-9.66 17.44,-18.531 4.45,-8.809 5.42,-20.289 2.19,-31.121 -3.27,-10.821 -10.4,-19.879 -18.96,-24.778 -8.52,-5.012 -17.54,-6.293 -24.77,-5.871 -14.82,1.121 -21.76,8.168 -21.32,8.359 0.41,0.922 7.82,-4.628 21.44,-4.671 6.66,0.062 14.76,1.64 22.15,6.273 7.4,4.527 13.54,12.547 16.47,22.188 2.86,9.652 2.14,19.73 -1.54,27.582 -3.61,7.937 -9.51,13.707 -15.04,17.429 -11.39,7.461 -20.63,6.918 -20.48,7.899"
         style="fill:#fcfdfd;fill-opacity:1;fill-rule:nonzero;stroke:none"
         id="path274" /><path
         d="m 3378.58,447.82 c -0.45,-0.179 -0.73,9.719 8.74,21.18 4.7,5.488 11.87,11.121 21.38,13.789 9.47,2.781 20.94,1.652 31,-3.48 10.05,-5.18 17.67,-13.84 20.94,-23.149 3.38,-9.269 2.99,-18.379 1.28,-25.41 -3.78,-14.379 -11.98,-19.93 -12.09,-19.461 -0.82,0.563 5.96,6.852 8.48,20.242 1.14,6.559 1.08,14.809 -2.16,22.918 -3.1,8.09 -9.88,15.59 -18.82,20.223 -8.98,4.558 -19.03,5.68 -27.41,3.476 -8.46,-2.109 -15.2,-6.859 -19.87,-11.617 -9.4,-9.871 -10.55,-19.051 -11.47,-18.711"
         style="fill:#fcfdfd;fill-opacity:1;fill-rule:nonzero;stroke:none"
         id="path276" /><path
         d="m 3494,606.77 c -0.12,0.468 9.72,-0.551 19.85,-11.43 4.84,-5.379 9.49,-13.219 10.9,-22.988 1.52,-9.75 -1.09,-20.981 -7.49,-30.293 -6.44,-9.278 -16.01,-15.707 -25.67,-17.739 -9.64,-2.148 -18.61,-0.59 -25.36,2.039 -13.77,5.61 -18.2,14.461 -17.72,14.512 0.66,0.738 6.01,-6.801 18.95,-11.039 6.37,-2 14.55,-2.992 23.02,-0.84 8.43,2.02 16.75,7.77 22.5,16.028 5.68,8.3 8.11,18.121 7.01,26.722 -0.99,8.668 -4.82,15.977 -8.94,21.207 -8.56,10.61 -17.51,12.93 -17.05,13.821"
         style="fill:#fcfdfd;fill-opacity:1;fill-rule:nonzero;stroke:none"
         id="path278" /><path
         d="m 3494.35,912.602 c -0.12,0.468 9.73,-0.551 19.86,-11.442 4.84,-5.371 9.48,-13.211 10.9,-22.98 1.52,-9.75 -1.09,-20.981 -7.49,-30.289 -6.44,-9.282 -16.02,-15.711 -25.67,-17.743 -9.63,-2.148 -18.62,-0.589 -25.36,2.032 -13.77,5.621 -18.21,14.461 -17.73,14.519 0.67,0.742 6.01,-6.808 18.96,-11.051 6.37,-1.988 14.55,-2.976 23.01,-0.828 8.44,2.02 16.75,7.762 22.5,16.032 5.7,8.296 8.12,18.117 7.01,26.718 -0.98,8.66 -4.82,15.969 -8.93,21.211 -8.56,10.61 -17.51,12.93 -17.06,13.821"
         style="fill:#fcfdfd;fill-opacity:1;fill-rule:nonzero;stroke:none"
         id="path280" /><path
         d="m 3560.09,968.859 c 0.21,-0.437 -9.64,-1.461 -21.78,7.129 -5.84,4.274 -11.98,10.992 -15.36,20.274 -3.49,9.228 -3.22,20.758 1.14,31.178 4.4,10.41 12.46,18.66 21.5,22.62 8.99,4.07 18.1,4.38 25.24,3.18 14.62,-2.67 20.78,-10.43 20.32,-10.58 -0.49,-0.86 -7.28,5.44 -20.82,6.94 -6.63,0.65 -14.85,-0.06 -22.69,-3.88 -7.84,-3.71 -14.81,-11.03 -18.75,-20.3 -3.87,-9.29 -4.24,-19.39 -1.41,-27.588 2.75,-8.281 7.99,-14.641 13.1,-18.941 10.54,-8.629 19.78,-9.071 19.51,-10.032"
         style="fill:#fcfdfd;fill-opacity:1;fill-rule:nonzero;stroke:none"
         id="path282" /><path
         d="m 3448.89,1137.43 c 0.2,-0.43 -9.64,-1.45 -21.78,7.13 -5.84,4.28 -11.99,11.01 -15.37,20.29 -3.48,9.22 -3.22,20.75 1.14,31.17 4.41,10.41 12.46,18.65 21.51,22.62 8.99,4.07 18.09,4.37 25.23,3.19 14.63,-2.69 20.78,-10.44 20.32,-10.6 -0.49,-0.86 -7.27,5.44 -20.82,6.95 -6.63,0.64 -14.85,-0.05 -22.69,-3.88 -7.84,-3.71 -14.81,-11.04 -18.75,-20.3 -3.87,-9.29 -4.23,-19.4 -1.4,-27.59 2.74,-8.28 7.99,-14.65 13.09,-18.94 10.53,-8.63 19.78,-9.08 19.52,-10.04"
         style="fill:#fcfdfd;fill-opacity:1;fill-rule:nonzero;stroke:none"
         id="path284" /><path
         d="m 3004.29,943.191 c 0.21,-0.429 -9.64,-1.461 -21.78,7.118 -5.84,4.281 -11.98,11.011 -15.36,20.281 -3.49,9.242 -3.22,20.762 1.14,31.18 4.4,10.41 12.46,18.65 21.5,22.62 8.99,4.07 18.1,4.37 25.24,3.19 14.62,-2.69 20.78,-10.44 20.32,-10.6 -0.5,-0.85 -7.28,5.44 -20.82,6.95 -6.64,0.64 -14.85,-0.05 -22.69,-3.89 -7.84,-3.7 -14.82,-11.02 -18.75,-20.29 -3.87,-9.289 -4.24,-19.398 -1.41,-27.59 2.75,-8.281 7.99,-14.648 13.1,-18.941 10.53,-8.629 19.77,-9.078 19.51,-10.028"
         style="fill:#fcfdfd;fill-opacity:1;fill-rule:nonzero;stroke:none"
         id="path286" /><path
         d="m 3450.12,1098.79 c -0.12,0.47 9.74,-0.55 19.86,-11.42 4.85,-5.39 9.48,-13.23 10.89,-22.99 1.53,-9.76 -1.08,-20.98 -7.48,-30.3 -6.44,-9.28 -16.02,-15.71 -25.67,-17.74 -9.63,-2.15 -18.62,-0.59 -25.36,2.04 -13.76,5.62 -18.21,14.46 -17.73,14.51 0.66,0.75 6.02,-6.8 18.97,-11.04 6.35,-1.99 14.55,-2.99 23,-0.84 8.43,2.02 16.75,7.77 22.5,16.03 5.69,8.31 8.12,18.12 7.02,26.72 -0.99,8.67 -4.83,15.98 -8.94,21.22 -8.56,10.6 -17.52,12.93 -17.06,13.81"
         style="fill:#fcfdfd;fill-opacity:1;fill-rule:nonzero;stroke:none"
         id="path288" /><path
         d="m 3590.44,922.43 c -0.08,0.019 -0.52,-1.16 -1.31,-3.469 -0.84,-2.531 -1.96,-5.949 -3.4,-10.301 -2.94,-9.281 -7.16,-22.551 -12.52,-39.398 -10.7,-34.364 -25.94,-83.313 -44.44,-142.703 l 2.03,1 c -75.84,28 -169.96,62.75 -271.73,100.312 -2.33,0.969 -4.64,1.93 -6.79,2.82 l 1.13,-2.269 c 17.64,65.027 39.63,125.598 63.63,178.678 24.11,52.97 51.06,98.63 80.8,131 14.82,16.14 30.39,28.77 45.67,36.98 15.2,8.29 30.04,12.25 42.22,12.48 3.05,0.06 5.94,0.6 8.63,0.25 2.68,-0.28 5.2,-0.55 7.55,-0.8 2.33,-0.29 4.53,-0.36 6.47,-0.77 1.9,-0.51 3.64,-0.97 5.22,-1.39 2.96,-0.78 5.32,-1.38 7.11,-1.84 1.62,-0.4 2.46,-0.57 2.49,-0.51 0.01,0.06 -0.78,0.36 -2.36,0.88 -1.78,0.56 -4.11,1.29 -7.05,2.21 -1.57,0.49 -3.32,1.01 -5.21,1.59 -1.96,0.47 -4.16,0.62 -6.52,0.97 -2.37,0.3 -4.92,0.63 -7.63,0.98 -2.73,0.4 -5.67,-0.07 -8.76,-0.07 -12.41,-0.01 -27.6,-3.83 -43.17,-12.09 -15.63,-8.17 -31.55,-20.83 -46.65,-37.03 -30.32,-32.47 -57.65,-78.27 -82.03,-131.36 -24.3,-53.248 -46.42,-113.842 -64.16,-179.201 l -0.44,-1.617 1.57,-0.653 c 2.15,-0.89 4.49,-1.839 6.81,-2.808 101.81,-38.102 196.24,-71.949 272.13,-99.68 l 1.55,-0.562 0.48,1.582 c 17.97,59.558 32.76,108.64 43.15,143.089 5.01,16.969 8.96,30.309 11.72,39.661 1.24,4.41 2.23,7.859 2.95,10.429 0.65,2.36 0.94,3.578 0.86,3.61"
         style="fill:#1d2a30;fill-opacity:1;fill-rule:nonzero;stroke:none"
         id="path290" /><path
         d="M 3077.41,758.582 3024.86,593.891 C 3004.68,525.879 2947.62,474.77 2877.12,461.539 l -351.52,-65.98 -95.63,3.082 95.63,118.347 264.25,90.102 c 25.94,5.719 46.51,25.25 53.31,50.629 l 105.19,228.84 133.25,-81.707 -4.19,-46.27"
         style="fill:#f9ad95;fill-opacity:1;fill-rule:nonzero;stroke:none"
         id="path292" /><path
         d="m 3488.84,743.059 -57.32,-187.5 c -20.19,-68.868 -77.24,-120.629 -147.74,-134.02 l -351.52,-66.809 -95.63,3.102 32.51,81.648 327.37,129.45 c 25.94,5.8 46.51,25.558 53.31,51.269 l 48.93,188.781 190.09,-65.921"
         style="fill:#f9ad95;fill-opacity:1;fill-rule:nonzero;stroke:none"
         id="path294" /><path
         d="m 3177.37,352.27 -2.99,22.781 -270.07,10.621 -132.54,334.207 -504.88,-34.27 170.37,-371.007 740.11,37.668"
         style="fill:#365462;fill-opacity:1;fill-rule:nonzero;stroke:none"
         id="path296" /><path
         d="m 2573.09,503.082 c 7.82,-12.344 24.17,-16.023 36.51,-8.191 12.35,7.82 16.02,24.168 8.19,36.507 -7.82,12.344 -24.17,16.012 -36.51,8.192 -12.34,-7.82 -16.01,-24.168 -8.19,-36.508"
         style="fill:#ffffff;fill-opacity:1;fill-rule:nonzero;stroke:none"
         id="path298" /><path
         d="m 3332.73,1860.38 c 79,-4.01 152.94,-59.55 178.8,-134.3 4.84,-14 8.13,-28.56 14.25,-42.03 6.13,-13.49 15.62,-26.19 29.13,-32.23 9.94,-4.45 21.21,-4.97 31.42,-8.74 17.27,-6.39 30.34,-22.24 34.71,-40.13 4.37,-17.88 0.41,-37.34 -9.38,-52.93 -4.9,-7.81 -11.43,-15.38 -11.85,-24.6 -0.3,-6.23 2.31,-12.18 3.77,-18.24 4.95,-20.61 -4.87,-43.88 -23.08,-54.72 -18.2,-10.84 -43.34,-8.38 -59.1,5.78 -6.61,-15.22 -15.41,-30.9 -30.39,-38.06 -14.98,-7.16 -37.1,-0.72 -40.22,15.58 -7.45,-15.64 -26.08,-25.09 -43.1,-21.86 -17.03,3.23 -30.9,18.85 -32.1,36.14"
         style="fill:#1d2a30;fill-opacity:1;fill-rule:nonzero;stroke:none"
         id="path300" /><path
         d="m 3093.03,1614.09 c -32.6,38.16 -33.09,97.98 -9.56,142.59 23.53,44.62 66.97,75.3 113.17,93.45 63.65,25.01 139.48,27.6 196.73,-10.31 49.53,-32.79 79.18,-94.7 74.19,-154.91 -5,-60.19 -44.41,-116.09 -98.62,-139.85"
         style="fill:#f03658;fill-opacity:1;fill-rule:nonzero;stroke:none"
         id="path302" /><path
         d="m 3469.51,1707.05 c -0.15,-1.48 -10.65,-1.4 -23.37,-2.69 -12.73,-1.21 -23.01,-3.33 -23.45,-1.91 -0.46,1.31 9.58,5.8 22.95,7.08 13.34,1.35 24.07,-1.11 23.87,-2.48"
         style="fill:#fcfdfd;fill-opacity:1;fill-rule:nonzero;stroke:none"
         id="path304" /><path
         d="m 3438.97,1790.44 c -0.07,-1.5 -9.66,-2.12 -21.02,-4.77 -11.37,-2.56 -20.27,-6.19 -20.99,-4.88 -0.71,1.19 7.65,7.19 19.83,9.94 12.16,2.84 22.3,1.08 22.18,-0.29"
         style="fill:#fcfdfd;fill-opacity:1;fill-rule:nonzero;stroke:none"
         id="path306" /><path
         d="m 3379.22,1846.18 c 0.11,-1.52 -13.58,-3.35 -29.53,-8.69 -16,-5.21 -28.08,-11.9 -28.9,-10.61 -0.8,1.08 10.53,10.08 27.27,15.55 16.7,5.58 31.15,5.1 31.16,3.75"
         style="fill:#fcfdfd;fill-opacity:1;fill-rule:nonzero;stroke:none"
         id="path308" /><path
         d="m 3279.75,1868.28 c 0.41,-1.49 -12.38,-5.51 -25.37,-15.09 -13.12,-9.41 -20.89,-20.33 -22.19,-19.48 -1.21,0.56 5.06,13.55 19.13,23.69 13.98,10.26 28.27,12.21 28.43,10.88"
         style="fill:#fcfdfd;fill-opacity:1;fill-rule:nonzero;stroke:none"
         id="path310" /><path
         d="m 3165.13,1831.56 c 0.81,-1.25 -3.32,-5.21 -6.87,-10.95 -2.52,-3.9 -4.16,-7.62 -5.4,-9.52 l -2.35,-3.58 -0.05,3.43 c -0.01,1.15 0.2,1.85 0.62,2 l 1.73,-1.16 -2.39,-0.15 c -0.31,2.37 0.49,7.19 3.44,11.76 4.29,6.84 10.61,9.4 11.27,8.17"
         style="fill:#fcfdfd;fill-opacity:1;fill-rule:nonzero;stroke:none"
         id="path312" /><path
         d="m 3448.53,1619.6 c -0.03,-1.38 -9.03,-2.18 -19.48,1.09 -10.47,3.2 -17.45,8.94 -16.68,10.09 0.78,1.27 8.46,-2.14 18.22,-5.12 9.72,-3.05 18.02,-4.57 17.94,-6.06"
         style="fill:#fcfdfd;fill-opacity:1;fill-rule:nonzero;stroke:none"
         id="path314" /><path
         d="m 3606.28,1699.8 c 0.23,0.25 -1.85,-6.57 -12.27,-9.91 -4.98,-1.51 -12.07,-1.84 -18.88,2.04 -6.75,3.8 -11.99,12.04 -12.56,21.72 -0.91,9.72 4.59,20.73 14.37,26.66 9.52,6.29 23.32,7.26 34.77,1.53 11.48,-5.33 21.1,-16.73 23.52,-30.5 2.55,-13.55 -0.67,-28.63 -9.8,-40.21 -9.19,-11.88 -24.37,-16.91 -37.84,-16.49 -13.67,0.34 -26.38,5.01 -36.7,11.79 -20.72,13.82 -32.92,32.7 -43.42,47.31 -10.29,14.96 -19.07,26.61 -26,33.96 -6.88,7.38 -11.31,10.85 -11.05,11.19 0.11,0.14 1.32,-0.59 3.52,-2.15 2.16,-1.6 5.27,-4.08 8.97,-7.62 7.48,-7 16.89,-18.54 27.55,-33.23 10.84,-14.34 23.28,-32.62 43.03,-45.43 9.73,-6.26 21.68,-10.48 34.19,-10.72 12.37,-0.27 25.65,4.25 33.68,14.64 8.09,10.23 11.09,23.92 8.86,36 -2.08,12.22 -10.42,22.22 -20.6,27.14 -10.14,5.15 -21.91,4.46 -30.41,-0.89 -8.67,-5.13 -13.51,-14.28 -12.96,-22.81 0.28,-8.52 4.67,-15.9 10.39,-19.4 5.73,-3.6 12.19,-3.69 16.85,-2.57 9.71,2.42 12.4,8.48 12.79,7.95"
         style="fill:#1d2a30;fill-opacity:1;fill-rule:nonzero;stroke:none"
         id="path316" /><path
         d="m 3376.44,1752.99 c 18.25,-1.92 31.98,-17.5 31.62,-35.84 l -20.03,-477.32 c -0.75,-56.37 -103.04,-123.02 -163.38,-121.75 -60.96,1.28 -43.03,65.97 -43.92,119.59 -1.46,89.59 -1.43,123.22 -1.46,122.71 0,0 -77.01,12.79 -92.97,113.27 -7.94,49.97 -5.42,131.89 -1.2,198.86 3.79,60.29 43.73,134.24 103.8,127.88 l 187.54,-47.4"
         style="fill:#f9ad95;fill-opacity:1;fill-rule:nonzero;stroke:none"
         id="path318" /><path
         d="m 3111.19,1607.47 c -0.23,-6.8 5.34,-12.61 12.43,-12.99 7.09,-0.39 13.04,4.8 13.29,11.61 0.24,6.8 -5.33,12.62 -12.42,13 -7.1,0.39 -13.05,-4.81 -13.3,-11.62"
         style="fill:#1d2a30;fill-opacity:1;fill-rule:nonzero;stroke:none"
         id="path320" /><path
         d="m 3102.86,1629.9 c 1.6,-1.68 11.37,5.53 25.24,5.5 13.85,0.16 24.02,-6.97 25.52,-5.27 0.75,0.75 -0.88,3.78 -5.31,7.01 -4.36,3.21 -11.8,6.33 -20.44,6.3 -8.64,-0.05 -15.91,-3.23 -20.08,-6.48 -4.26,-3.28 -5.71,-6.31 -4.93,-7.06"
         style="fill:#1d2a30;fill-opacity:1;fill-rule:nonzero;stroke:none"
         id="path322" /><path
         d="m 3246.76,1607.47 c -0.24,-6.8 5.32,-12.61 12.42,-12.99 7.09,-0.39 13.05,4.8 13.28,11.61 0.25,6.8 -5.32,12.62 -12.41,13 -7.1,0.39 -13.06,-4.81 -13.29,-11.62"
         style="fill:#1d2a30;fill-opacity:1;fill-rule:nonzero;stroke:none"
         id="path324" /><path
         d="m 3239.17,1627.31 c 1.6,-1.68 11.37,5.53 25.23,5.5 13.85,0.16 24.03,-6.97 25.53,-5.27 0.74,0.75 -0.88,3.78 -5.32,7 -4.36,3.23 -11.8,6.34 -20.44,6.31 -8.63,-0.05 -15.9,-3.23 -20.08,-6.48 -4.25,-3.27 -5.7,-6.31 -4.92,-7.06"
         style="fill:#1d2a30;fill-opacity:1;fill-rule:nonzero;stroke:none"
         id="path326" /><path
         d="m 3188.85,1524.47 c 0.06,0.79 -8.56,2.28 -22.53,4.07 -3.53,0.36 -6.88,1.06 -7.48,3.47 -0.84,2.57 0.64,6.38 2.36,10.5 3.32,8.58 6.81,17.55 10.47,26.97 14.54,38.38 25.07,69.95 23.52,70.52 -1.56,0.57 -14.6,-30.08 -29.14,-68.46 -3.5,-9.48 -6.85,-18.49 -10.03,-27.13 -1.34,-4.03 -3.65,-8.59 -1.84,-13.9 0.96,-2.65 3.56,-4.56 5.82,-5.18 2.28,-0.69 4.27,-0.73 6.02,-0.83 14.05,-0.76 22.77,-0.82 22.83,-0.03"
         style="fill:#1d2a30;fill-opacity:1;fill-rule:nonzero;stroke:none"
         id="path328" /><path
         d="m 3179.27,1360.38 c 0,0 67.6,-4.36 134.56,35.89 0,0 -32.65,-69.01 -133.2,-59.62 l -1.36,23.73"
         style="fill:#f6865e;fill-opacity:1;fill-rule:nonzero;stroke:none"
         id="path330" /><path
         d="m 3194.71,1491.05 c 4.99,6.6 13.72,10.21 22.4,9.28 6.02,-0.65 12.1,-3.55 15.75,-8.45 3.66,-4.9 4.43,-11.86 1.1,-16.53 -3.74,-5.26 -11.57,-6.47 -18.18,-4.6 -6.62,1.89 -12.31,6.24 -17.72,10.58 -1.5,1.2 -3.03,2.46 -3.96,4.1 -0.93,1.65 -1.14,3.8 0.02,5.17"
         style="fill:#f6865e;fill-opacity:1;fill-rule:nonzero;stroke:none"
         id="path332" /><path
         d="m 3229.65,1514.88 c -2.26,0.13 -2.28,-14.93 -15.17,-25.61 -12.85,-10.71 -28.9,-9.02 -29.02,-11.12 -0.2,-0.95 3.58,-2.93 10.35,-3.12 6.64,-0.22 16.34,1.92 24.23,8.45 7.85,6.55 11.23,15.29 11.75,21.46 0.58,6.29 -1.1,10.02 -2.14,9.94"
         style="fill:#1d2a30;fill-opacity:1;fill-rule:nonzero;stroke:none"
         id="path334" /><path
         d="m 3232.93,1651.58 c 1.37,-3.77 15.22,-1.98 31.49,-3.94 16.3,-1.63 29.42,-6.4 31.58,-3.02 0.96,1.62 -1.33,5.17 -6.63,8.82 -5.26,3.64 -13.65,7.11 -23.41,8.19 -9.77,1.07 -18.71,-0.48 -24.64,-2.89 -5.97,-2.41 -8.97,-5.37 -8.39,-7.16"
         style="fill:#1d2a30;fill-opacity:1;fill-rule:nonzero;stroke:none"
         id="path336" /><path
         d="m 3107.97,1670.02 c 2.43,-3.14 11.98,0.12 23.48,0.28 11.47,0.55 21.21,-2.12 23.44,1.18 0.99,1.6 -0.54,4.75 -4.79,7.73 -4.19,2.97 -11.19,5.4 -19.09,5.16 -7.89,-0.25 -14.73,-3.11 -18.72,-6.33 -4.07,-3.23 -5.4,-6.48 -4.32,-8.02"
         style="fill:#1d2a30;fill-opacity:1;fill-rule:nonzero;stroke:none"
         id="path338" /><path
         d="m 3396.94,1592.28 c 7.6,5.27 18.25,3.32 26.26,-1.32 18.47,-10.67 27.65,-35.09 20.8,-55.28 -6.86,-20.21 -29,-33.99 -50.15,-31.22"
         style="fill:#f9ad95;fill-opacity:1;fill-rule:nonzero;stroke:none"
         id="path340" /><path
         d="m 3238.97,1833.87 c -36.62,-1.22 -64.4,-12.36 -96.54,-29.95 -32.14,-17.58 -59.02,-46.6 -68.91,-81.89 -2.1,-7.48 -3.3,-16.01 0.8,-22.62 5.42,-8.72 18.2,-10.18 27.56,-5.94 9.35,4.23 16.07,12.59 22.42,20.66 4.74,-18.43 23.04,-32.45 42.07,-32.23 19.04,0.21 37.01,14.63 41.35,33.16 0.15,-19.29 19.45,-35.23 38.74,-34.54 19.27,0.69 36.34,15.56 42.76,33.75 3.58,-17.14 7.41,-34.85 17.67,-49.05 10.26,-14.19 28.83,-23.96 45.49,-18.53 -2.36,-14.98 -4.65,-30.74 0.66,-44.94 5.31,-14.2 21.09,-25.69 35.43,-20.77 13.91,4.78 19.32,21.27 22.58,35.62 6.28,27.68 11.65,55.85 10.77,84.22 -0.89,28.36 -8.48,57.22 -25.87,79.64 -18,23.19 -45.26,37.91 -73.65,45.4 -28.39,7.5 -58.09,8.34 -87.45,7.96"
         style="fill:#1d2a30;fill-opacity:1;fill-rule:nonzero;stroke:none"
         id="path342" /><path
         d="m 3403.96,1534.43 c 0.28,0.71 3.9,-0.86 8.75,1.36 4.77,1.9 9.12,8.96 8.62,17.17 -0.28,8.33 -5.66,14.3 -10.72,16.11 -5.02,2.07 -8.73,1.06 -8.94,1.83 -0.35,0.5 3.42,3.16 10.05,1.68 3.19,-0.74 6.91,-2.65 9.82,-6.12 2.89,-3.42 4.75,-8.18 4.99,-13.23 0.73,-10.13 -5.64,-19.32 -12.57,-20.9 -6.84,-1.8 -10.54,1.69 -10,2.1"
         style="fill:#f6865e;fill-opacity:1;fill-rule:nonzero;stroke:none"
         id="path344" /><path
         d="m 3442.16,1529.21 c 0.06,0.17 1.47,-0.22 4.13,-1.12 2.67,-0.88 6.5,-2.48 11.2,-5.02 9.26,-5.02 22.73,-14.12 32.74,-30.92 4.89,-8.33 8.65,-18.7 8.96,-30.26 0.55,-11.55 -2.44,-23.83 -8.36,-35.29 -6.02,-11.38 -15.11,-21.9 -26.73,-29.8 -11.58,-7.88 -25.86,-13.1 -40.92,-13.18 -30.46,0.01 -56.45,19.5 -67.89,42.42 -6.05,11.47 -7.95,24.16 -7.13,35.57 1.09,11.46 4.86,21.67 9.69,30.03 9.85,16.84 23.46,26.14 33.26,30.22 4.92,2.14 8.98,3.23 11.75,3.63 2.79,0.47 4.24,0.62 4.27,0.44 0.13,-0.56 -5.8,-1.32 -15.17,-5.91 -9.24,-4.51 -21.93,-13.91 -30.89,-30.18 -4.42,-8.08 -7.77,-17.82 -8.61,-28.56 -0.56,-10.68 1.32,-22.39 7.11,-33.05 10.87,-21.33 35.5,-39.46 63.57,-39.4 28.18,0.17 52.2,18.94 63.45,40.03 11.97,21.47 9.89,45.71 0.43,61.47 -9.09,16.19 -21.76,25.55 -30.54,30.98 -8.96,5.43 -14.51,7.44 -14.32,7.9"
         style="fill:#f03658;fill-opacity:1;fill-rule:nonzero;stroke:none"
         id="path346" /><path
         d="m 724.262,233.512 c -0.082,0.039 0.437,1.289 1.519,3.66 1.219,2.598 2.844,6.066 4.918,10.5 4.18,9.269 9.617,23.297 14.461,41.98 9.563,37.328 12.899,94.399 -1.238,162.168 -6.567,33.93 -17.152,70.321 -30.07,108.918 -12.739,38.653 -27.524,79.66 -39.598,124 -11.941,44.231 -21.367,92.25 -19.551,142.582 1.836,50.442 16.766,100.782 33.184,150.891 16.386,50.179 33.336,99.239 38.414,148.589 5.742,49.25 -4.805,97.61 -27.242,137.23 -21.735,40.04 -49.082,74.28 -69.543,109.76 -20.786,35.36 -33.786,71.72 -41.797,105.52 -15.535,68.17 -10.094,125.62 -2.649,163.48 8.063,38.06 17.055,57.73 17.055,57.73 0.086,-0.03 -0.258,-1.33 -1.012,-3.84 -0.851,-2.73 -1.996,-6.39 -3.449,-11.06 -3.008,-9.73 -6.906,-24.25 -10.605,-43.21 -6.797,-37.78 -11.602,-94.83 4.242,-162.25 8.168,-33.45 21.226,-69.32 41.937,-104.19 20.414,-35.05 47.883,-69.15 70.043,-109.67 22.914,-40.06 33.93,-89.99 28.094,-140.02 -5.109,-50.17 -22.184,-99.57 -38.531,-149.678 -16.422,-50.071 -31.176,-99.891 -33.043,-149.481 -1.86,-49.551 7.336,-97.109 19.086,-141.133 11.883,-44.109 26.492,-85.136 39.062,-123.906 12.766,-38.703 23.219,-75.391 29.586,-109.57 13.77,-68.262 9.84,-125.903 -0.414,-163.364 -5.18,-18.757 -10.961,-32.757 -15.469,-41.929 -2.281,-4.348 -4.066,-7.75 -5.398,-10.289 -1.242,-2.309 -1.914,-3.461 -1.992,-3.418"
         style="fill:#1d2a30;fill-opacity:1;fill-rule:nonzero;stroke:none"
         id="path348" /><path
         d="m 657.309,1338.79 c 0,0 -41.555,132.88 32.988,210.69 2.613,2.73 7.223,1.44 7.898,-2.29 3.981,-21.93 8.953,-88.78 -40.886,-208.4"
         style="fill:#f03658;fill-opacity:1;fill-rule:nonzero;stroke:none"
         id="path350" /><path
         d="m 682.203,1505.2 c 0.707,-0.14 -0.48,-9.48 -2.797,-24.51 -2.73,-16.89 -5.937,-36.71 -9.476,-58.62 -3.485,-21.89 -6.625,-41.72 -9.309,-58.6 -2.273,-15.01 -3.637,-24.31 -4.398,-24.25 -0.672,0.05 -0.606,9.5 0.746,24.7 1.375,15.17 4.051,36.06 7.816,58.99 3.75,22.93 7.75,43.58 11.004,58.45 3.242,14.87 5.711,23.98 6.414,23.84"
         style="fill:#1d2a30;fill-opacity:1;fill-rule:nonzero;stroke:none"
         id="path352" /><path
         d="m 706.121,1025.39 c 0,0 25.414,136.89 127.684,170.8 3.593,1.2 7.062,-2.11 5.918,-5.71 -6.743,-21.26 -33.61,-82.67 -133.602,-165.09"
         style="fill:#f03658;fill-opacity:1;fill-rule:nonzero;stroke:none"
         id="path354" /><path
         d="m 805.949,1160.84 c 0.559,-0.46 -4.863,-8.16 -13.941,-20.36 -10.309,-13.65 -22.41,-29.68 -35.785,-47.37 -13.317,-17.74 -25.368,-33.78 -35.629,-47.45 -9.035,-12.21 -14.59,-19.8 -15.235,-19.39 -0.574,0.36 3.911,8.69 12.211,21.49 8.317,12.77 20.45,29.99 34.5,48.49 14.035,18.51 27.231,34.89 37.051,46.52 9.832,11.63 16.274,18.52 16.828,18.07"
         style="fill:#1d2a30;fill-opacity:1;fill-rule:nonzero;stroke:none"
         id="path356" /><path
         d="m 678.484,681.988 c 0,0 -15.433,138.364 72.579,200.512 3.089,2.191 7.363,0.039 7.32,-3.75 -0.281,-22.289 -8.153,-88.852 -79.899,-196.762"
         style="fill:#f03658;fill-opacity:1;fill-rule:nonzero;stroke:none"
         id="path358" /><path
         d="m 734.672,840.59 c 0.668,-0.27 -2.285,-9.231 -7.426,-23.539 -5.902,-16.051 -12.832,-34.899 -20.484,-55.719 -7.594,-20.84 -14.465,-39.703 -20.317,-55.75 -5.093,-14.301 -8.211,-23.184 -8.949,-22.973 -0.648,0.18 1.227,9.442 5.445,24.102 4.247,14.641 10.86,34.629 18.93,56.43 8.059,21.781 15.926,41.289 21.949,55.261 6.028,13.989 10.188,22.45 10.852,22.188"
         style="fill:#1d2a30;fill-opacity:1;fill-rule:nonzero;stroke:none"
         id="path360" /><path
         d="m 755.523,336.57 c 0,0 -10.472,138.828 79.715,197.789 3.164,2.071 7.356,-0.23 7.176,-4.007 -1.078,-22.27 -11.324,-88.512 -86.891,-193.782"
         style="fill:#f03658;fill-opacity:1;fill-rule:nonzero;stroke:none"
         id="path362" /><path
         d="m 817.355,493.059 c 0.657,-0.297 -2.613,-9.137 -8.261,-23.25 -6.477,-15.84 -14.078,-34.43 -22.473,-54.957 -8.332,-20.551 -15.871,-39.153 -22.293,-54.993 -5.605,-14.109 -9.039,-22.871 -9.765,-22.629 -0.645,0.192 1.558,9.391 6.304,23.891 4.766,14.481 12.09,34.219 20.938,55.711 8.828,21.477 17.386,40.688 23.914,54.449 6.519,13.75 10.98,22.071 11.636,21.778"
         style="fill:#1d2a30;fill-opacity:1;fill-rule:nonzero;stroke:none"
         id="path364" /><path
         d="m 597.59,1455.54 c 0,0 -123.406,64.45 -125.828,172.17 -0.086,3.79 4.086,6.13 7.195,3.98 18.344,-12.68 69.172,-56.38 118.633,-176.15"
         style="fill:#f03658;fill-opacity:1;fill-rule:nonzero;stroke:none"
         id="path366" /><path
         d="m 497.387,1590.71 c 0.597,0.4 6.375,-7.05 15.375,-19.3 10.023,-13.86 21.793,-30.13 34.789,-48.11 13.051,-17.93 24.859,-34.16 34.914,-47.99 9.015,-12.2 14.64,-19.74 14.058,-20.24 -0.511,-0.44 -7.156,6.29 -16.957,17.98 -9.773,11.7 -22.671,28.34 -36.238,47.21 -13.582,18.84 -25.367,36.26 -33.601,49.07 -8.235,12.8 -12.938,20.98 -12.34,21.38"
         style="fill:#1d2a30;fill-opacity:1;fill-rule:nonzero;stroke:none"
         id="path368" /><path
         d="m 730.109,1170.17 c 0,0 -127.093,56.83 -136.054,164.21 -0.313,3.77 3.707,6.36 6.941,4.41 19.078,-11.55 72.465,-52.07 129.113,-168.62"
         style="fill:#f03658;fill-opacity:1;fill-rule:nonzero;stroke:none"
         id="path370" /><path
         d="m 621.883,1299 c 0.57,0.44 6.785,-6.64 16.515,-18.32 10.848,-13.24 23.582,-28.76 37.649,-45.91 14.109,-17.11 26.887,-32.59 37.766,-45.78 9.738,-11.64 15.808,-18.82 15.261,-19.36 -0.484,-0.47 -7.523,5.85 -18.015,16.92 -10.469,11.08 -24.352,26.91 -39.039,44.92 -14.704,17.99 -27.528,34.66 -36.52,46.93 -9,12.29 -14.187,20.17 -13.617,20.6"
         style="fill:#1d2a30;fill-opacity:1;fill-rule:nonzero;stroke:none"
         id="path372" /><path
         d="m 656.98,851.852 c 0,0 -87.265,108.48 -46.335,208.148 1.437,3.51 6.199,3.99 8.183,0.77 11.731,-18.97 40.805,-79.36 38.152,-208.918"
         style="fill:#f03658;fill-opacity:1;fill-rule:nonzero;stroke:none"
         id="path374" /><path
         d="m 619.305,1015.83 c 0.707,0.14 3.015,-9 6.355,-23.842 3.633,-16.707 7.899,-36.328 12.61,-58.008 4.773,-21.648 9.089,-41.25 12.773,-57.949 3.367,-14.801 5.504,-23.961 4.77,-24.179 -0.645,-0.204 -4.04,8.617 -8.336,23.257 -4.274,14.629 -9.418,35.051 -14.297,57.77 -4.891,22.711 -8.719,43.391 -11.133,58.422 -2.414,15.029 -3.449,24.409 -2.742,24.529"
         style="fill:#1d2a30;fill-opacity:1;fill-rule:nonzero;stroke:none"
         id="path376" /><path
         d="m 743.422,477.262 c 0,0 -126.125,58.957 -133.277,166.468 -0.254,3.77 3.808,6.301 7.011,4.29 18.879,-11.86 71.582,-53.282 126.266,-170.758"
         style="fill:#f03658;fill-opacity:1;fill-rule:nonzero;stroke:none"
         id="path378" /><path
         d="m 637.371,607.891 c 0.582,0.418 6.68,-6.75 16.211,-18.602 10.617,-13.41 23.09,-29.148 36.867,-46.527 13.824,-17.352 26.336,-33.043 36.989,-46.41 9.546,-11.801 15.492,-19.082 14.937,-19.61 -0.492,-0.461 -7.426,5.969 -17.73,17.219 -10.282,11.25 -23.895,27.32 -38.282,45.559 -14.394,18.242 -26.937,35.121 -35.722,47.55 -8.793,12.43 -13.852,20.391 -13.27,20.821"
         style="fill:#1d2a30;fill-opacity:1;fill-rule:nonzero;stroke:none"
         id="path380" /><path
         d="m 994.637,1024.65 c 0.121,-0.01 0.172,-1.05 0.16,-3.07 -0.059,-2.43 -0.133,-5.35 -0.219,-8.9 -0.371,-8.36 -0.871,-19.66 -1.496,-33.75 -1.625,-29.688 -3.891,-71.071 -6.605,-120.571 l -0.004,-0.109 -0.032,-0.168 c -9.003,-50.383 -34.656,-106.223 -69.125,-160.434 -25.277,-39.937 -51.781,-76.25 -74.636,-110.019 -23.004,-33.668 -42.426,-64.848 -55.957,-92.5 -13.625,-27.598 -21.547,-51.309 -26.18,-67.879 -2.215,-8.309 -3.883,-14.801 -4.844,-19.238 -1.035,-4.422 -1.664,-6.731 -1.844,-6.703 -0.175,0.031 0.106,2.402 0.817,6.91 0.629,4.523 1.98,11.101 3.91,19.551 4.051,16.812 11.508,40.921 24.828,68.96 13.223,28.09 32.457,59.692 55.293,93.59 22.699,34 49.059,70.371 74.207,110.102 34.285,53.949 59.809,108.937 69.149,158.508 l -0.039,-0.282 c 3.476,49.454 6.382,90.793 8.464,120.434 1.137,14.066 2.051,25.338 2.727,33.688 0.352,3.53 0.644,6.44 0.887,8.85 0.238,2.01 0.422,3.03 0.539,3.03"
         style="fill:#1d2a30;fill-opacity:1;fill-rule:nonzero;stroke:none"
         id="path382" /><path
         d="m 919.539,708.012 c 0,0 53.418,128.558 -13.773,212.797 -2.36,2.961 -7.067,2.089 -8.075,-1.559 -5.953,-21.488 -16.957,-87.609 21.848,-211.238"
         style="fill:#f03658;fill-opacity:1;fill-rule:nonzero;stroke:none"
         id="path384" /><path
         d="m 909.813,875.98 c 0.714,0.079 2.347,-9.21 4.23,-24.32 1.895,-15.101 4.012,-36.031 5.664,-59.199 1.676,-23.18 2.453,-44.223 2.449,-59.469 -0.035,-15.242 -0.82,-24.672 -1.496,-24.66 -0.765,0.008 -1.277,9.398 -2.187,24.547 -1.141,17.051 -2.481,37.082 -3.957,59.211 -1.543,22.129 -2.942,42.16 -4.133,59.23 -0.949,15.18 -1.285,24.59 -0.57,24.66"
         style="fill:#1d2a30;fill-opacity:1;fill-rule:nonzero;stroke:none"
         id="path386" /><path
         d="m 919.539,708.012 c -21.941,69.91 -27.957,121.418 -27.969,156.879 -0.007,27.25 3.535,45.019 6.121,54.359 0.594,2.16 2.481,3.34 4.411,3.34 1.336,0 2.695,-0.57 3.664,-1.781 25.918,-32.489 33.89,-71.579 33.906,-107.34 0,-8.66 -0.461,-17.117 -1.25,-25.25 -1.731,-17.867 -5.031,-34.11 -8.395,-47.239 -3.218,-12.558 -6.496,-22.261 -8.511,-27.789 0.351,4.231 0.621,11.059 0.64,19.801 0.004,15.246 -0.773,36.289 -2.449,59.469 -1.652,23.168 -3.769,44.098 -5.664,59.199 -1.875,15.051 -3.5,24.32 -4.223,24.32 -0.004,0 -0.007,0 -0.007,0 -0.715,-0.07 -0.379,-9.48 0.57,-24.66 1.191,-17.07 2.59,-37.101 4.133,-59.23 1.476,-22.129 2.816,-42.16 3.957,-59.211 0.711,-11.84 1.179,-20.16 1.715,-23.238 -0.418,-1.071 -0.649,-1.629 -0.649,-1.629"
         style="fill:#bc283b;fill-opacity:1;fill-rule:nonzero;stroke:none"
         id="path388" /><path
         d="m 920.188,709.641 v 0 c -0.536,3.078 -1.004,11.398 -1.715,23.238 -1.141,17.051 -2.481,37.082 -3.957,59.211 -1.543,22.129 -2.942,42.16 -4.133,59.23 -0.949,15.18 -1.285,24.59 -0.57,24.66 0,0 0.003,0 0.007,0 0.723,0 2.348,-9.269 4.223,-24.32 1.895,-15.101 4.012,-36.031 5.664,-59.199 1.676,-23.18 2.453,-44.223 2.449,-59.469 -0.019,-8.742 -0.289,-15.57 -0.64,-19.801 v 0 c -0.543,-1.492 -0.993,-2.679 -1.328,-3.55"
         style="fill:#161c1e;fill-opacity:1;fill-rule:nonzero;stroke:none"
         id="path390" /><path
         d="m 754.098,398.18 c 0,0 42.812,132.48 -30.985,210.98 -2.593,2.762 -7.215,1.512 -7.922,-2.199 -4.187,-21.91 -9.8,-88.699 38.907,-208.781"
         style="fill:#f03658;fill-opacity:1;fill-rule:nonzero;stroke:none"
         id="path392" /><path
         d="m 730.781,564.809 c 0.703,0.132 3.086,-9 6.196,-23.899 3.109,-14.898 6.91,-35.578 10.441,-58.539 3.551,-22.973 6.031,-43.883 7.258,-59.082 1.207,-15.199 1.187,-24.648 0.512,-24.699 -0.762,-0.051 -2.036,9.262 -4.172,24.289 -2.52,16.91 -5.477,36.762 -8.743,58.703 -3.335,21.93 -6.351,41.777 -8.925,58.688 -2.172,15.05 -3.274,24.41 -2.567,24.539"
         style="fill:#1d2a30;fill-opacity:1;fill-rule:nonzero;stroke:none"
         id="path394" /><path
         d="m 754.098,398.18 c -34.055,83.961 -41.555,141.871 -41.555,176.601 0,14.938 1.391,25.59 2.648,32.18 0.446,2.328 2.446,3.687 4.508,3.687 1.215,0 2.453,-0.468 3.414,-1.488 34.16,-36.34 43.336,-84.238 43.336,-125.219 0,-37.011 -7.484,-68.371 -10.801,-80.453 0.008,4.254 -0.281,11.082 -0.972,19.801 -1.227,15.199 -3.707,36.109 -7.258,59.082 -3.531,22.961 -7.332,43.641 -10.441,58.539 -3.086,14.789 -5.454,23.899 -6.176,23.899 -0.008,0 -0.012,0 -0.02,0 -0.707,-0.129 0.395,-9.489 2.567,-24.539 2.574,-16.911 5.59,-36.758 8.925,-58.688 3.266,-21.941 6.223,-41.793 8.743,-58.703 1.672,-11.75 2.812,-20 3.597,-23.027 -0.328,-1.102 -0.515,-1.672 -0.515,-1.672"
         style="fill:#bc283b;fill-opacity:1;fill-rule:nonzero;stroke:none"
         id="path396" /><path
         d="m 754.613,399.852 v 0 c -0.785,3.027 -1.925,11.277 -3.597,23.027 -2.52,16.91 -5.477,36.762 -8.743,58.703 -3.335,21.93 -6.351,41.777 -8.925,58.688 -2.172,15.05 -3.274,24.41 -2.567,24.539 0.008,0 0.012,0 0.02,0 0.722,0 3.09,-9.11 6.176,-23.899 3.109,-14.898 6.91,-35.578 10.441,-58.539 3.551,-22.973 6.031,-43.883 7.258,-59.082 0.691,-8.719 0.98,-15.547 0.972,-19.801 v 0 c -0.421,-1.527 -0.773,-2.75 -1.035,-3.636"
         style="fill:#161c1e;fill-opacity:1;fill-rule:nonzero;stroke:none"
         id="path398" /><path
         d="m 987.566,865.141 c 0,0 114.054,79.839 102.544,186.969 -0.4,3.76 -4.84,5.55 -7.65,3.02 -16.55,-14.94 -61.31,-64.829 -94.894,-189.989"
         style="fill:#f03658;fill-opacity:1;fill-rule:nonzero;stroke:none"
         id="path400" /><path
         d="m 987.566,865.141 c 33.584,125.16 78.344,175.049 94.894,189.989 0.9,0.81 1.97,1.18 3.02,1.18 2.22,0 4.36,-1.64 4.63,-4.2 0.55,-5.12 0.81,-10.19 0.82,-15.18 0.01,-37.551 -14.73,-71.25 -33.09,-98.641 -1.49,-2.23 -3.01,-4.41 -4.54,-6.547 -29.55,-41.273 -65.734,-66.601 -65.734,-66.601"
         style="fill:#bc283b;fill-opacity:1;fill-rule:nonzero;stroke:none"
         id="path402" /><path
         d="m 1069.48,1012.11 c 0.64,-0.32 -2.96,-9.04 -9.48,-22.801 -6.51,-13.758 -15.95,-32.547 -26.98,-53 -11.02,-20.45 -21.66,-38.629 -29.84,-51.489 -8.211,-12.851 -13.934,-20.379 -14.496,-20.011 -0.641,0.421 3.964,8.621 11.326,21.89 8.19,15 17.8,32.621 28.42,52.09 10.58,19.5 20.14,37.16 28.29,52.199 7.35,13.312 12.11,21.442 12.76,21.122"
         style="fill:#1d2a30;fill-opacity:1;fill-rule:nonzero;stroke:none"
         id="path404" /><path
         d="m 800.09,529.512 c 0,0 137.562,21.449 174.414,122.699 1.293,3.551 -1.902,7.121 -5.543,6.078 C 947.523,652.16 885.363,627.082 800.09,529.512"
         style="fill:#f03658;fill-opacity:1;fill-rule:nonzero;stroke:none"
         id="path406" /><path
         d="m 800.09,529.512 c 85.273,97.57 147.433,122.648 168.871,128.777 0.437,0.133 0.867,0.191 1.281,0.191 2.524,0 4.555,-2.14 4.555,-4.64 0,-0.531 -0.094,-1.078 -0.293,-1.629 -9.496,-26.09 -25.684,-46.891 -44.477,-63.379 -45.043,-39.523 -105.07,-54.344 -123.976,-58.203 -2.723,-0.559 -4.59,-0.891 -5.442,-1.027 -0.339,-0.063 -0.519,-0.09 -0.519,-0.09"
         style="fill:#bc283b;fill-opacity:1;fill-rule:nonzero;stroke:none"
         id="path408" /><path
         d="m 938.359,625.379 c 0.438,-0.559 -6.644,-6.797 -18.546,-16.289 -11.907,-9.488 -28.661,-22.199 -47.571,-35.688 -18.898,-13.511 -36.453,-25.152 -49.469,-33.082 -13.031,-7.929 -21.484,-12.172 -21.824,-11.601 -0.39,0.672 7.356,6 19.809,14.672 13.961,9.859 30.351,21.449 48.465,34.25 18.078,12.851 34.441,24.488 48.382,34.398 12.461,8.723 20.317,13.922 20.754,13.34"
         style="fill:#1d2a30;fill-opacity:1;fill-rule:nonzero;stroke:none"
         id="path410" /><path
         d="M 668.859,276.352 628.727,6.26953 H 878.801 L 846.379,276.352 h -177.52"
         style="fill:#365462;fill-opacity:1;fill-rule:nonzero;stroke:none"
         id="path412" /><path
         d="m 856.375,192.66 c 0,-1.441 -45.152,-2.601 -100.836,-2.601 -55.703,0 -100.844,1.16 -100.844,2.601 0,1.442 45.141,2.61 100.844,2.61 55.684,0 100.836,-1.168 100.836,-2.61"
         style="fill:#1d2a30;fill-opacity:1;fill-rule:nonzero;stroke:none"
         id="path414" /><path
         d="m 861.336,171.172 c 0,-1.434 -46.633,-2.602 -104.141,-2.602 -57.531,0 -104.152,1.168 -104.152,2.602 0,1.437 46.621,2.598 104.152,2.598 57.508,0 104.141,-1.161 104.141,-2.598"
         style="fill:#1d2a30;fill-opacity:1;fill-rule:nonzero;stroke:none"
         id="path416" /></g></g></svg>
