<svg width="1440" height="208" viewBox="0 0 1440 208" fill="none" xmlns="http://www.w3.org/2000/svg">
<path d="M0 145.6L30 135.2C60 124.8 120 104 180 97.045C240 90.35 300 96.85 360 107.445C420 117.65 480 131.95 540 138.645C600 145.6 660 145.6 720 138.645C780 131.95 840 117.65 900 117.845C960 117.65 1020 131.95 1080 138.645C1140 145.6 1200 145.6 1260 145.6C1320 145.6 1380 145.6 1410 145.6H1440V208H1410C1380 208 1320 208 1260 208C1200 208 1140 208 1080 208C1020 208 960 208 900 208C840 208 780 208 720 208C660 208 600 208 540 208C480 208 420 208 360 208C300 208 240 208 180 208C120 208 60 208 30 208H0V145.6Z" fill="#D6CDA4"/>
</svg>
