<svg width="1437" height="208" viewBox="0 0 1437 208" fill="none" xmlns="http://www.w3.org/2000/svg">
<rect width="1440" height="208" transform="translate(-3)" fill="#D6CDA4"/>
<path d="M-3 145.6L27 135.2C57 124.8 117 104 177 97.0451C237 90.3501 297 96.8501 357 107.445C417 117.65 477 131.95 537 138.645C597 145.6 657 145.6 717 138.645C777 131.95 837 117.65 897 117.845C957 117.65 1017 131.95 1077 138.645C1137 145.6 1197 145.6 1257 145.6C1317 145.6 1377 145.6 1407 145.6H1437V208H1407C1377 208 1317 208 1257 208C1197 208 1137 208 1077 208C1017 208 957 208 897 208C837 208 777 208 717 208C657 208 597 208 537 208C477 208 417 208 357 208C297 208 237 208 177 208C117 208 57 208 27 208H-3V145.6Z" fill="#418363"/>
</svg>
