<svg width="1440" height="283" viewBox="0 0 1440 283" fill="none" xmlns="http://www.w3.org/2000/svg">
<g clip-path="url(#clip0_49_686)">
<path d="M-9 283L21.1875 268.857C51.375 254.714 111.75 226.429 172.125 216.971C232.5 207.866 292.875 216.705 353.25 231.113C413.625 244.991 474 264.438 534.375 273.542C594.75 283 655.125 283 715.5 273.542C775.875 264.438 836.25 244.991 896.625 245.256C957 244.991 1017.38 264.438 1077.75 273.542C1138.12 283 1198.5 283 1258.88 283C1319.25 283 1379.62 283 1409.81 283H1440V85H1409.81C1379.62 85 1319.25 85 1258.88 85C1198.5 85 1138.12 85 1077.75 85C1017.38 85 957 85 896.625 85C836.25 85 775.875 85 715.5 85C655.125 85 594.75 85 534.375 85C474 85 413.625 85 353.25 85C292.875 85 232.5 85 172.125 85C111.75 85 51.375 85 21.1875 85H-9V283Z" fill="#D6CDA4"/>
</g>
<defs>
<clipPath id="clip0_49_686">
<rect width="1440" height="283" fill="white"/>
</clipPath>
</defs>
</svg>
